<?xml version="1.0" standalone="no"?>
<!DOCTYPE svg PUBLIC "-//W3C//DTD SVG 20010904//EN"
 "http://www.w3.org/TR/2001/REC-SVG-20010904/DTD/svg10.dtd">
<svg version="1.0" xmlns="http://www.w3.org/2000/svg"
 width="1080.000000pt" height="1080.000000pt" viewBox="0 0 1080.000000 1080.000000"
 preserveAspectRatio="xMidYMid meet">
<metadata>
Created by potrace 1.14, written by Peter Selinger 2001-2017
</metadata>
<g transform="translate(0.000000,1080.000000) scale(0.100000,-0.100000)"
fill="#000000" stroke="none">
<path d="M5127 10263 c-13 -12 -7 -25 6 -14 16 13 69 -7 63 -24 -4 -14 -76
-13 -108 2 -32 15 -72 17 -63 4 3 -5 -7 -12 -22 -14 -16 -3 -8 -4 17 -3 35 2
51 -3 69 -20 21 -20 22 -24 9 -37 -8 -8 -39 -18 -69 -22 -30 -4 -65 -12 -79
-17 -24 -9 -24 -10 -6 -23 10 -8 23 -12 29 -8 6 3 7 1 3 -5 -4 -7 -21 -12 -37
-12 -22 0 -32 -6 -39 -25 -5 -14 -7 -32 -4 -40 4 -10 0 -15 -10 -15 -10 0 -30
-7 -46 -15 -26 -14 -30 -13 -38 1 -7 13 -19 16 -56 12 -41 -5 -45 -4 -34 10
11 14 10 15 -7 8 -11 -5 -29 -11 -40 -14 -20 -5 -20 -5 -1 16 17 19 17 22 3
22 -10 0 -17 4 -17 8 0 5 -25 15 -55 22 -34 8 -55 18 -55 27 0 8 5 11 13 7 6
-4 4 2 -6 12 -16 17 -19 18 -44 2 -15 -9 -29 -22 -32 -29 -2 -6 1 -9 7 -5 15
9 42 -4 42 -19 0 -8 -8 -16 -17 -18 -14 -4 -13 -5 3 -6 12 0 25 -8 28 -17 3
-8 16 -15 28 -14 13 1 34 2 48 1 l25 -2 -25 -14 c-14 -8 -33 -14 -42 -15 -27
0 -22 -18 11 -38 25 -15 27 -20 16 -35 -15 -20 -45 -13 -46 12 0 11 -3 9 -9
-6 -6 -14 -15 -21 -24 -17 -8 3 -23 1 -33 -5 -15 -10 -11 -11 22 -10 59 3 77
0 70 -10 -3 -5 -30 -13 -61 -17 -49 -6 -55 -9 -50 -26 4 -18 1 -19 -25 -14
-16 3 -43 3 -59 -1 -28 -5 -29 -7 -13 -19 16 -12 16 -13 2 -14 -9 0 -20 -7
-23 -16 -3 -9 -12 -14 -20 -11 -16 6 -96 -12 -111 -24 -5 -5 0 -9 13 -9 12 0
22 -6 22 -14 0 -10 -14 -14 -48 -14 -27 0 -63 -7 -80 -16 -17 -9 -44 -16 -59
-16 -16 1 -73 -10 -128 -24 -55 -14 -104 -24 -110 -22 -12 4 38 25 80 33 17 3
35 11 40 17 6 7 36 20 68 30 55 17 68 28 47 41 -5 3 -10 1 -10 -4 0 -6 -9 -11
-19 -11 -15 0 -18 5 -13 22 5 19 2 21 -26 15 -17 -4 -34 -2 -37 3 -6 10 74 50
102 50 10 0 24 4 32 9 12 8 12 12 2 24 -10 13 -6 17 26 27 21 7 42 16 47 20
11 10 -51 43 -65 35 -5 -4 -16 -1 -24 5 -11 10 -24 7 -60 -10 -25 -12 -45 -26
-45 -32 0 -5 -8 -8 -18 -6 -10 1 -41 -21 -77 -55 -33 -31 -56 -57 -52 -57 14
0 -87 -96 -131 -125 -23 -15 -58 -29 -77 -31 l-35 -3 25 25 c31 31 36 67 6 40
-15 -13 -20 -14 -24 -4 -3 7 -6 3 -6 -9 -1 -28 -9 -29 -32 -2 -14 16 -16 25
-7 44 6 13 16 21 23 19 16 -6 40 22 26 31 -10 6 -60 -23 -61 -35 0 -3 -40 -47
-90 -98 -49 -52 -90 -97 -90 -102 0 -5 -6 -15 -12 -22 -36 -40 -128 -228 -151
-308 -20 -70 -38 -194 -41 -285 -2 -49 -10 -88 -28 -130 -26 -59 -43 -165 -27
-165 12 0 11 -37 -1 -60 -15 -28 22 -65 50 -50 26 14 25 5 0 -20 -20 -20 -28
-56 -10 -45 6 3 10 1 10 -4 0 -6 -4 -11 -10 -11 -14 0 -12 -28 2 -32 9 -3 8
-11 -4 -30 -9 -14 -13 -30 -8 -37 4 -7 5 -22 3 -32 -3 -10 -1 -19 4 -19 5 0
10 -26 11 -57 3 -122 11 -187 38 -303 3 -14 5 -37 5 -52 -2 -37 8 -40 70 -20
l54 17 11 122 c7 67 15 127 20 134 4 7 9 22 10 33 2 12 8 48 13 81 15 98 30
144 71 230 22 44 40 87 40 94 0 19 49 122 68 143 8 10 19 15 24 12 11 -7 73
21 115 52 34 26 51 18 34 -15 -24 -45 55 -64 101 -24 9 8 23 13 30 11 23 -8
81 40 102 84 18 37 25 43 49 40 15 -1 27 2 27 8 0 5 9 10 20 10 11 0 27 11 35
24 14 21 39 35 70 40 11 1 59 40 83 67 13 15 18 15 54 1 36 -14 42 -14 66 0
15 9 43 19 62 23 19 4 41 11 50 16 16 8 67 22 87 24 6 0 20 8 30 17 13 12 31
16 62 13 28 -3 51 1 64 10 26 18 54 19 60 3 4 -8 8 -4 12 10 9 27 25 29 32 2
6 -22 18 -26 28 -10 3 6 14 10 24 10 10 0 25 7 32 16 12 14 14 14 20 -3 7 -16
8 -16 8 0 1 26 51 24 51 -3 0 -11 6 -20 14 -20 8 0 18 9 21 20 3 11 15 20 25
20 10 0 22 9 25 20 6 18 25 29 25 14 0 -17 -36 -64 -49 -64 -8 0 -12 -3 -9 -6
3 -3 25 0 49 6 36 10 44 9 51 -4 5 -9 14 -13 20 -10 6 4 17 -1 24 -11 7 -10
20 -15 29 -12 10 5 15 0 15 -14 0 -21 27 -24 43 -4 5 6 5 -1 2 -13 -6 -21 -4
-22 12 -14 27 14 155 0 161 -17 3 -10 0 -12 -12 -8 -9 4 -16 2 -16 -3 0 -6
-17 -10 -37 -10 -28 0 -34 -3 -23 -10 8 -5 25 -10 37 -10 12 0 26 -8 32 -17 6
-12 20 -16 49 -15 30 2 43 -2 51 -15 9 -16 11 -15 22 12 l12 30 9 -32 c9 -33
40 -59 58 -48 6 4 10 12 9 18 -5 38 1 49 23 44 15 -4 30 1 44 14 36 34 65 22
86 -35 9 -27 15 -53 13 -57 -3 -4 2 -9 10 -13 8 -3 15 -18 16 -33 1 -27 1 -27
8 -4 l7 24 17 -27 c15 -22 21 -25 32 -16 20 17 37 2 33 -29 -1 -15 6 -40 16
-55 10 -16 16 -38 14 -50 -3 -13 0 -23 6 -23 7 0 10 15 8 39 -5 48 13 50 22 3
4 -19 10 -35 14 -35 10 0 60 -118 68 -160 4 -19 16 -45 27 -57 13 -15 16 -23
8 -23 -9 0 -11 -8 -7 -25 6 -24 4 -25 -20 -19 -24 6 -26 5 -21 -15 5 -22 -32
-61 -60 -61 -11 0 -11 -4 2 -23 14 -22 14 -26 -5 -47 -20 -23 -20 -24 -2 -44
17 -19 51 -85 66 -129 4 -12 12 -16 24 -13 12 4 27 -3 42 -19 21 -23 22 -27 9
-41 -19 -18 -13 -70 8 -78 8 -3 11 -1 8 4 -3 6 -1 10 4 10 18 0 13 -70 -5 -77
-28 -10 -105 44 -97 69 2 4 -4 5 -12 2 -9 -4 -15 0 -15 10 0 9 -8 16 -18 16
-24 0 -82 29 -82 40 0 9 -44 26 -46 19 -5 -12 -44 38 -44 55 0 13 -12 29 -30
39 -16 10 -30 25 -30 33 0 16 -16 19 -25 4 -10 -17 -25 -11 -25 9 0 24 -19 38
-30 22 -5 -9 -10 -8 -20 4 -12 14 -16 13 -40 -10 -22 -21 -29 -23 -33 -12 -4
10 2 17 15 20 11 3 17 10 14 16 -9 13 -38 2 -54 -21 -18 -25 -28 -23 -49 12
-15 26 -22 30 -45 24 -16 -3 -28 -2 -28 3 0 4 -15 8 -32 8 -26 0 -33 4 -33 20
0 15 -5 19 -20 16 -11 -3 -32 -4 -47 -3 -16 0 -48 2 -73 3 -25 1 -51 -3 -57
-9 -8 -8 -15 -8 -28 0 -14 9 -22 8 -35 -5 -9 -9 -22 -17 -28 -17 -8 0 -8 3 1
9 22 14 -54 21 -83 8 -14 -7 -28 -20 -31 -29 -8 -27 -25 -21 -18 6 7 29 -19
42 -41 20 -11 -12 -15 -12 -15 -2 0 8 -3 9 -8 2 -10 -15 -42 -25 -42 -14 0 20
-19 9 -23 -12 -3 -20 -5 -18 -12 10 l-8 34 -12 -36 c-7 -20 -10 -46 -8 -57 5
-19 4 -20 -15 -8 -19 12 -24 11 -37 -8 -10 -14 -21 -20 -32 -16 -11 4 -14 3
-9 -5 11 -18 -15 -14 -36 5 -16 14 -18 14 -18 1 0 -17 -26 -32 -40 -23 -4 3
-13 -2 -20 -10 -7 -8 -17 -15 -23 -15 -6 0 -18 -7 -28 -16 -14 -13 -26 -14
-63 -6 -29 6 -48 6 -54 0 -15 -15 -71 1 -82 22 -6 11 -16 17 -24 14 -8 -3 -25
6 -39 20 -27 26 -53 34 -59 16 -2 -6 -20 -5 -48 1 -40 9 -111 3 -83 -8 26 -10
1 -31 -33 -28 -20 2 -34 -1 -34 -7 0 -6 -9 -3 -20 7 -18 16 -20 17 -26 1 -4
-10 -13 -15 -20 -12 -8 3 -11 0 -8 -9 4 -10 0 -12 -15 -8 -16 4 -19 11 -14 34
4 23 2 29 -13 31 -38 3 -57 -3 -74 -22 -10 -12 -31 -20 -51 -21 -19 -1 -26 -3
-16 -6 14 -4 16 -8 6 -19 -6 -8 -18 -14 -25 -14 -8 0 -14 -4 -14 -10 0 -5 -7
-7 -15 -4 -10 4 -15 0 -15 -11 0 -10 -5 -15 -13 -12 -8 3 -20 2 -26 -3 -23
-14 16 -60 51 -60 16 0 27 4 24 8 -12 20 310 0 524 -33 113 -18 383 -14 485 7
92 18 381 62 467 71 32 3 45 1 41 -6 -4 -6 0 -8 11 -4 10 4 22 7 27 7 6 0 8 4
5 8 -8 14 163 6 179 -8 8 -7 15 -9 15 -4 0 5 7 1 14 -9 8 -10 18 -18 23 -18
15 1 73 -20 73 -27 0 -4 -53 -2 -117 5 -203 22 -513 4 -743 -43 -105 -22 -150
-26 -283 -25 -87 1 -201 7 -255 15 -204 30 -325 39 -470 33 -126 -5 -165 -10
-279 -41 -181 -49 -303 -85 -315 -92 -7 -4 -9 -34 -5 -77 4 -66 7 -73 40 -102
41 -35 67 -83 97 -180 42 -137 73 -178 150 -200 19 -5 15 1 -18 25 -25 19 -54
53 -68 82 -60 118 -89 373 -50 432 37 54 177 95 410 122 126 14 167 15 265 5
106 -11 271 -46 271 -58 0 -3 -10 -3 -22 0 -29 7 -169 17 -146 11 9 -3 19 -12
22 -20 5 -14 -29 -33 -86 -48 -16 -3 -28 -11 -28 -16 0 -5 12 -16 28 -24 l27
-14 -25 -6 c-14 -2 -51 -7 -83 -11 -128 -12 -270 -62 -326 -115 -38 -36 -35
-48 8 -30 16 6 35 9 41 5 6 -4 23 1 38 11 33 23 82 27 82 8 0 -19 20 -17 36 4
13 16 14 16 20 -5 5 -18 10 -20 29 -13 13 5 25 7 27 4 3 -2 38 0 78 6 64 9 75
8 92 -7 18 -16 16 -18 -53 -50 -39 -19 -83 -36 -98 -38 -61 -10 -130 -13 -133
-6 -2 4 -21 11 -43 14 l-40 6 30 -24 c71 -58 229 -60 360 -5 105 44 197 100
203 122 2 10 8 18 13 18 13 0 -1 -129 -22 -201 -38 -132 -145 -195 -374 -219
l-80 -9 100 5 c55 2 118 7 140 10 38 5 39 4 20 -11 -11 -9 -46 -28 -77 -42
-51 -22 -74 -42 -50 -43 4 -1 17 -9 30 -19 l22 -19 -42 -77 c-24 -42 -55 -98
-70 -123 -15 -26 -33 -58 -40 -72 -6 -14 -20 -36 -29 -50 -69 -101 -124 -259
-99 -284 6 -6 10 -21 10 -36 0 -14 9 -36 20 -50 11 -14 20 -30 20 -37 0 -6 15
-36 33 -66 40 -69 69 -79 109 -36 15 16 35 29 45 29 10 0 31 7 47 15 15 8 40
15 55 15 15 0 36 7 47 15 22 17 38 20 29 5 -3 -5 -1 -10 5 -10 7 0 9 8 5 19
-4 14 3 21 37 34 35 13 75 15 208 12 174 -5 322 -11 330 -15 5 -2 18 -6 33 -8
4 -1 3 -11 -3 -22 -6 -11 -15 -18 -20 -15 -10 6 -70 -22 -81 -39 -4 -4 -9 -2
-12 5 -4 12 -7 11 -16 -1 -7 -10 -11 -11 -11 -2 0 13 -28 16 -54 6 -9 -3 -16
-13 -16 -22 0 -12 -3 -13 -12 -4 -15 15 -54 16 -63 2 -8 -13 -51 -13 -76 1
-18 9 -19 7 -13 -15 5 -20 2 -26 -10 -26 -9 0 -16 -4 -16 -10 0 -13 17 -13 25
0 4 6 12 7 18 3 11 -7 245 -17 322 -14 94 4 110 6 115 13 3 4 80 10 170 13 91
4 170 8 177 10 6 2 13 -6 17 -17 4 -18 7 -19 21 -8 12 10 13 15 3 21 -19 12
-7 17 28 12 21 -3 35 -13 43 -29 6 -13 17 -24 26 -24 8 0 15 -6 15 -13 0 -15
56 -41 70 -32 5 3 10 18 11 33 0 24 1 25 9 7 6 -17 9 -14 15 18 5 25 3 43 -4
50 -14 14 -14 27 0 27 5 0 7 -4 4 -10 -4 -6 5 -10 19 -10 20 0 27 6 32 28 4
15 15 38 26 51 10 13 18 32 18 41 0 10 7 34 15 55 17 39 12 125 -7 125 -5 0
-7 9 -3 20 3 11 -1 32 -9 47 -9 16 -20 41 -26 56 -5 16 -16 27 -24 25 -13 -3
-76 65 -76 82 0 4 -17 25 -39 47 -21 23 -53 64 -71 92 -18 28 -37 51 -41 51
-4 0 -20 25 -34 55 -15 30 -44 68 -64 85 -20 16 -43 36 -53 44 -9 8 -25 17
-36 20 -11 4 -27 15 -37 26 -18 20 -17 20 21 21 26 1 31 3 14 6 -110 18 -196
66 -243 135 -79 116 -133 361 -96 441 20 44 90 70 264 97 117 19 163 21 328
17 165 -4 206 -9 291 -31 117 -31 160 -53 164 -86 4 -22 3 -22 -13 -6 -10 9
-30 20 -46 23 -16 3 -34 12 -40 19 -7 8 -21 11 -35 8 -13 -3 -32 -3 -41 1 -19
8 -62 7 -76 -2 -5 -3 1 -16 14 -29 l22 -23 -27 -7 c-15 -3 -44 -4 -65 -1 -21
2 -71 1 -113 -3 -129 -12 -178 6 -98 37 22 9 40 19 40 24 0 4 -36 7 -80 6 -49
0 -85 4 -92 11 -7 7 -20 12 -30 12 -10 0 -18 5 -18 11 0 23 -245 -25 -296 -58
-25 -16 -44 -74 -44 -134 0 -84 64 -265 98 -277 17 -5 15 66 -3 119 -11 30
-12 40 -3 31 19 -19 28 -15 28 13 0 17 -4 23 -14 19 -9 -4 -15 5 -18 25 -5 33
6 42 16 14 6 -15 8 -15 16 -3 8 12 12 8 22 -17 11 -31 47 -51 68 -38 5 3 11 1
15 -4 3 -6 12 -8 20 -4 9 3 15 -1 15 -10 0 -22 41 -9 48 15 5 21 34 17 63 -8
8 -8 27 -14 42 -14 14 0 28 -4 32 -9 20 -33 359 -63 396 -35 8 6 32 15 54 22
144 41 154 45 159 66 3 11 3 -22 1 -74 -6 -121 -16 -155 -62 -203 -36 -36 -37
-38 -11 -28 68 26 106 75 122 161 17 86 34 100 76 64 12 -10 18 -10 33 1 11 8
26 11 34 8 8 -3 21 3 29 15 13 20 16 20 50 6 31 -13 38 -13 68 1 18 9 45 14
60 11 14 -3 26 0 26 5 0 19 31 21 45 3 21 -28 18 -71 -7 -104 -19 -26 -20 -34
-11 -65 6 -20 7 -35 2 -35 -5 0 -9 -6 -9 -13 0 -21 -37 -50 -51 -41 -9 5 -10
2 -5 -12 4 -10 10 -33 13 -51 5 -27 2 -32 -18 -35 -20 -2 -24 -9 -25 -40 -1
-45 -8 -55 -28 -39 -8 7 -17 8 -20 3 -3 -6 1 -15 10 -22 8 -7 12 -20 9 -28 -3
-8 1 -22 10 -32 10 -11 14 -34 13 -71 -2 -68 6 -112 21 -117 6 -2 11 -11 11
-19 0 -9 -6 -13 -15 -10 -8 4 -17 2 -20 -4 -4 -5 1 -12 9 -15 22 -8 20 -24 -3
-24 -24 0 -36 -29 -15 -37 8 -3 26 4 39 17 22 21 28 22 50 10 27 -15 34 -47
11 -56 -11 -4 -12 -12 -4 -35 6 -17 8 -45 5 -63 -3 -19 0 -39 5 -44 11 -11 7
-14 -39 -28 -11 -3 -19 -46 -10 -57 1 -2 -3 -10 -10 -18 -6 -8 -14 -33 -17
-57 -4 -32 -2 -42 10 -42 20 0 17 -18 -6 -32 -11 -7 -20 -19 -20 -26 0 -7 -11
-37 -24 -65 -14 -29 -28 -64 -31 -79 -4 -16 -12 -25 -20 -22 -7 3 -15 -4 -18
-15 -4 -16 -13 -21 -36 -21 -19 0 -34 -6 -37 -15 -4 -8 -10 -13 -14 -10 -4 3
-10 -5 -13 -16 -3 -12 -10 -19 -14 -16 -5 3 -15 -8 -22 -24 -7 -16 -23 -34
-34 -41 -12 -6 -26 -17 -30 -24 -11 -19 -37 -18 -37 1 0 8 5 15 10 15 6 0 10
5 10 10 0 20 -20 9 -35 -20 -9 -16 -23 -30 -32 -30 -12 0 -14 7 -10 30 4 17 2
30 -3 30 -6 0 -10 -5 -10 -11 0 -5 -4 -7 -10 -4 -5 3 -10 17 -10 31 0 25 -15
33 -22 12 -4 -10 -10 -10 -31 -1 -21 10 -33 10 -52 1 -21 -10 -29 -8 -48 10
-27 26 -37 28 -37 7 0 -8 5 -15 11 -15 8 0 8 -4 0 -14 -6 -7 -9 -21 -5 -30 4
-10 1 -16 -9 -16 -10 0 -29 -27 -48 -67 -17 -37 -45 -78 -62 -92 -16 -14 -38
-44 -48 -66 -10 -22 -29 -50 -43 -63 -15 -12 -26 -29 -26 -37 0 -8 -11 -22
-25 -31 -14 -9 -25 -22 -25 -29 0 -6 -13 -31 -30 -53 -16 -23 -30 -45 -30 -50
0 -4 -31 -37 -69 -74 -56 -52 -75 -65 -94 -61 -14 3 -28 0 -31 -6 -4 -6 -18
-11 -30 -11 -13 0 -29 -6 -35 -14 -7 -8 -24 -14 -39 -14 -15 0 -40 -5 -57 -12
-38 -16 -65 -19 -65 -8 0 5 -5 6 -11 2 -7 -4 -9 0 -5 14 6 18 3 20 -31 17
-104 -10 -153 -18 -153 -25 0 -5 -10 -10 -22 -12 -12 -2 -23 -9 -26 -16 -6
-18 139 -13 153 5 11 15 45 8 45 -8 0 -5 17 -9 38 -9 44 -1 77 -23 77 -53 0
-18 6 -21 42 -22 38 0 42 -2 46 -28 3 -23 -1 -31 -20 -38 -14 -5 -21 -14 -18
-20 4 -6 -2 -5 -14 3 -17 10 -23 10 -33 0 -11 -11 -9 -16 6 -28 11 -8 29 -14
41 -14 12 0 26 -5 33 -12 13 -13 17 -32 5 -25 -5 3 -18 1 -31 -4 -20 -8 -22
-13 -16 -45 7 -41 -12 -113 -36 -131 -12 -9 -13 -14 -2 -24 17 -18 15 -42 -3
-35 -10 3 -18 -1 -21 -12 -3 -9 -10 -26 -16 -36 -8 -16 -5 -23 21 -43 l30 -24
-33 -30 c-19 -16 -39 -29 -45 -29 -7 0 -9 -5 -6 -11 17 -26 15 -100 -3 -137
-26 -52 -22 -105 11 -136 17 -16 27 -35 27 -53 0 -38 -19 -103 -30 -103 -5 0
-15 -6 -22 -13 -21 -19 -76 -57 -84 -57 -3 0 -26 -14 -51 -31 -28 -18 -43 -24
-40 -15 4 10 1 13 -7 10 -18 -7 -39 22 -33 46 3 12 -4 29 -18 44 -13 14 -22
26 -20 28 1 2 5 20 9 41 5 25 3 37 -5 37 -6 0 -9 -7 -5 -15 3 -8 2 -15 -3 -15
-11 0 -21 35 -21 73 0 16 -4 26 -10 22 -6 -3 -10 1 -10 9 0 23 31 20 37 -4 3
-11 9 -18 13 -15 4 2 16 -13 26 -35 16 -34 23 -40 52 -40 18 0 40 -7 48 -15 9
-8 23 -15 32 -15 11 0 7 7 -14 20 -17 11 -37 31 -44 45 -7 14 -17 25 -21 25
-17 0 -112 105 -138 153 -27 49 -52 145 -67 250 -3 26 -9 47 -13 47 -9 0 -107
-102 -241 -250 -52 -57 -116 -128 -142 -156 -33 -35 -48 -59 -48 -78 0 -22
-22 -50 -100 -129 -94 -94 -150 -158 -150 -171 0 -14 32 -4 51 15 11 11 23 18
26 15 3 -3 -21 -36 -54 -73 -74 -85 -95 -131 -97 -222 -3 -103 -15 -105 -31
-4 -5 31 -1 56 18 105 38 96 39 108 14 109 -62 4 -78 -13 -93 -94 -6 -34 -17
-89 -24 -122 -20 -100 2 -231 61 -358 17 -37 50 -33 64 8 14 41 37 75 52 75
18 0 91 -107 98 -143 3 -18 11 -50 16 -73 14 -53 -6 -109 -88 -243 -25 -41
-33 -66 -33 -100 0 -93 29 -290 48 -324 2 -5 10 4 18 18 8 15 12 31 9 35 -3 5
-1 11 5 15 5 3 10 -3 10 -14 0 -12 9 -30 20 -41 11 -11 20 -30 20 -41 0 -19
-2 -20 -16 -8 -14 11 -15 10 -12 -11 1 -14 11 -26 21 -28 14 -3 17 4 17 35 0
21 4 33 8 27 7 -11 12 -12 66 -17 16 -1 31 -8 34 -14 2 -7 20 -14 40 -14 20
-1 30 -3 21 -6 -16 -4 -52 -110 -40 -118 14 -8 26 11 27 43 1 18 4 35 7 38 11
11 67 15 67 5 0 -6 6 -11 14 -11 16 0 57 105 76 195 16 74 36 139 55 174 18
33 18 21 0 -54 -8 -33 -14 -74 -15 -92 0 -17 -4 -34 -9 -38 -6 -3 -13 -27 -16
-53 -4 -26 -13 -64 -21 -86 -18 -46 -13 -55 14 -28 24 24 31 13 26 -42 l-3
-39 65 6 c78 8 84 0 62 -79 -8 -29 -12 -51 -7 -49 4 3 10 -29 14 -70 l7 -75
19 24 c11 13 19 29 19 35 0 17 20 13 27 -5 5 -13 11 -10 34 16 25 27 31 29 49
18 24 -15 35 -43 23 -60 -12 -19 -33 -81 -33 -98 0 -8 -13 -57 -29 -110 -50
-165 -83 -293 -91 -355 -4 -34 -17 -82 -29 -109 -12 -26 -21 -57 -19 -69 3
-22 78 186 78 216 0 25 38 141 53 162 22 29 42 1 42 -58 1 -36 5 -51 18 -59
13 -7 15 -13 8 -22 -15 -18 -2 -54 21 -62 15 -4 17 -8 8 -14 -15 -9 -5 -30 14
-30 7 0 18 24 26 57 7 32 18 64 24 72 10 13 14 39 19 126 2 41 10 46 50 30 14
-6 17 -1 17 34 0 39 11 53 25 31 4 -6 10 -8 14 -6 4 3 13 1 20 -3 10 -6 10
-14 3 -28 -6 -11 -7 -25 -2 -33 5 -8 5 -19 1 -25 -5 -5 -11 -22 -15 -38 -5
-22 -3 -27 13 -27 11 0 22 6 25 13 3 6 3 -8 1 -33 l-5 -45 10 39 c6 22 15 45
21 53 9 10 8 13 -5 13 -15 0 -18 6 -15 28 1 4 5 6 11 4 5 -1 16 5 25 14 13 13
14 20 5 34 -6 10 -8 21 -5 24 10 10 43 7 43 -5 0 -5 4 -7 10 -4 16 10 12 38
-5 31 -14 -5 -21 13 -15 39 1 6 4 24 6 40 3 27 3 28 -6 8 -14 -33 -34 -29 -25
4 3 15 10 30 14 33 4 3 13 20 20 38 8 18 20 36 29 41 8 5 16 21 18 37 7 76 18
126 29 130 7 3 10 14 7 26 -4 16 -1 19 19 16 19 -2 23 -8 21 -27 -4 -22 -1
-23 32 -18 22 3 36 1 39 -6 5 -17 -20 -40 -34 -31 -9 5 -10 0 -7 -14 4 -12 2
-22 -3 -22 -5 0 -9 10 -9 22 0 21 0 21 -21 2 -12 -10 -23 -18 -25 -16 -2 1 -4
0 -4 -3 0 -3 0 -12 0 -20 0 -10 10 -15 30 -15 17 0 30 -4 30 -10 0 -5 7 -10
15 -10 18 0 19 -12 4 -27 -7 -7 -9 -19 -5 -28 5 -14 9 -15 21 -5 8 7 15 19 15
26 0 8 7 14 15 14 8 0 15 5 15 10 0 6 14 10 30 10 37 0 39 17 4 30 -30 12 -24
31 9 22 21 -5 21 -4 4 15 -9 11 -14 23 -10 26 11 12 23 8 23 -8 0 -8 8 -15 18
-15 9 0 23 -4 30 -9 11 -7 10 -12 -5 -27 -31 -30 -73 -96 -67 -106 6 -10 -24
-48 -38 -48 -4 0 -8 7 -8 16 0 32 -35 10 -40 -25 -8 -52 -30 -53 -26 -1 5 59
-10 35 -17 -27 -5 -42 -3 -52 11 -58 10 -4 21 1 29 11 11 15 13 15 22 -10 10
-25 31 -36 31 -16 0 6 7 10 15 10 20 0 19 -12 -5 -53 -16 -27 -18 -39 -10 -67
10 -36 6 -55 -5 -21 -3 12 -10 21 -15 21 -5 0 -11 10 -13 23 l-4 22 -8 -22
c-8 -25 -25 -31 -25 -10 0 9 -2 9 -8 -1 -7 -10 -15 -10 -36 -2 -15 5 -32 8
-37 4 -5 -3 -9 0 -9 6 0 6 -4 8 -10 5 -15 -9 -12 -25 4 -25 8 0 22 -7 30 -16
9 -8 20 -12 26 -9 5 3 10 1 10 -4 0 -10 -20 -15 -47 -12 -7 1 -13 -5 -13 -14
0 -8 -4 -15 -10 -15 -5 0 -10 -6 -10 -14 0 -17 27 -29 35 -16 11 18 25 10 25
-12 1 -21 2 -21 11 -5 17 29 28 19 23 -20 -2 -21 -2 -31 2 -23 3 8 8 22 11 30
4 8 5 21 4 28 -1 6 3 12 9 12 14 0 13 -40 -2 -73 -10 -20 -18 -25 -33 -20 -11
4 -29 7 -40 7 -11 1 -23 5 -26 10 -8 10 -29 -1 -29 -15 0 -5 7 -9 15 -9 10 0
15 -11 15 -35 0 -27 -3 -33 -16 -28 -8 3 -13 12 -10 19 3 8 1 14 -3 14 -11 0
-21 -25 -21 -51 0 -13 -7 -19 -24 -19 -32 0 -53 -25 -36 -44 6 -8 17 -13 25
-10 7 3 16 0 20 -5 10 -17 25 -3 25 25 0 24 14 32 25 14 3 -6 1 -10 -4 -10
-15 0 -14 -33 1 -48 10 -10 10 -15 -2 -23 -13 -8 -13 -11 3 -23 9 -7 17 -16
17 -19 0 -5 -75 1 -100 9 -18 6 -20 6 -20 -3 0 -5 6 -8 13 -8 6 0 16 -10 22
-23 8 -18 16 -22 40 -17 28 5 29 4 7 -7 -22 -11 -22 -12 -3 -32 13 -15 16 -27
11 -41 -8 -19 -9 -19 -9 -1 -1 15 -4 16 -16 6 -8 -6 -19 -9 -25 -5 -5 3 -10
-1 -10 -9 0 -9 -4 -16 -10 -16 -5 0 -10 4 -10 9 0 5 -11 11 -25 13 -20 4 -25
1 -25 -14 0 -11 4 -17 9 -14 5 3 14 0 20 -8 7 -8 21 -12 31 -9 11 3 20 0 20
-6 0 -6 9 -11 19 -11 11 0 23 -5 26 -10 5 -8 11 -8 19 -1 7 6 21 8 33 5 16 -5
23 1 31 25 7 20 18 31 30 31 22 0 35 23 57 105 9 33 23 67 31 76 20 23 21 126
1 142 -20 15 -36 94 -17 82 9 -5 10 -2 5 15 -5 15 -3 21 5 18 6 -2 12 -8 12
-13 0 -22 19 -44 33 -39 10 4 15 0 16 -12 0 -11 3 -14 5 -7 3 7 0 21 -6 33 -7
14 -8 26 -2 33 5 7 13 28 17 47 4 19 12 41 17 47 6 7 8 22 5 32 -3 12 1 22 9
25 9 4 14 -2 14 -15 0 -40 25 -12 30 33 3 25 11 52 18 60 6 8 9 18 5 21 -3 4
2 7 13 7 48 1 77 72 34 83 -11 3 -20 12 -20 21 0 14 4 15 20 6 11 -6 20 -15
20 -20 0 -6 12 -10 26 -10 19 0 25 -4 22 -18 -2 -9 -10 -16 -18 -14 -10 2 -11
0 -2 -11 9 -11 7 -28 -10 -78 -11 -35 -24 -68 -28 -74 -4 -5 -10 -23 -14 -38
-5 -21 -3 -28 6 -25 7 3 21 36 31 74 11 38 27 86 38 107 10 22 19 47 19 58 0
16 6 18 45 15 56 -6 65 -11 65 -42 0 -31 18 -31 26 1 4 16 13 25 25 25 11 0
19 7 19 16 0 11 -6 14 -20 9 -16 -5 -20 -2 -20 14 0 15 -6 21 -21 21 -17 0
-19 -3 -10 -13 12 -15 5 -27 -16 -27 -8 0 -13 12 -13 30 0 17 5 30 12 30 6 0
9 3 5 6 -6 7 17 34 28 34 4 0 4 -7 1 -16 -8 -21 1 -34 19 -28 8 4 12 10 9 15
-3 5 1 9 10 9 8 0 17 -6 19 -12 3 -7 6 -1 6 13 1 15 8 30 17 33 27 11 -2 33
-41 31 -36 -1 -42 8 -25 35 8 13 10 12 10 -2 0 -19 11 -23 24 -11 4 5 13 8 19
8 7 0 11 8 11 18 -1 9 2 17 7 17 12 0 11 37 -1 45 -5 3 -10 10 -10 16 0 5 5 9
10 9 6 0 10 -6 10 -14 0 -11 20 -26 35 -26 10 0 17 73 8 79 -17 10 4 51 26 51
15 0 20 -9 23 -41 2 -27 -1 -43 -9 -46 -19 -8 -16 -34 4 -31 10 2 19 -4 21
-14 4 -20 -22 -25 -33 -8 -10 16 -35 -8 -35 -33 0 -16 3 -18 12 -9 14 14 32
16 24 3 -4 -5 -2 -11 4 -13 6 -2 6 -15 1 -33 -7 -25 -13 -30 -37 -28 -27 2
-28 1 -10 -12 10 -8 15 -19 11 -26 -6 -9 0 -10 20 -6 36 6 55 -1 55 -20 0 -10
-6 -12 -20 -8 -11 4 -20 2 -20 -4 0 -6 5 -11 10 -11 6 0 10 -7 10 -15 0 -18
-20 -20 -20 -2 0 6 -6 3 -12 -7 -8 -15 -8 -21 0 -24 19 -6 14 -19 -8 -25 -21
-5 -29 -39 -7 -35 7 2 11 -5 9 -16 -3 -14 1 -17 12 -13 11 5 16 0 16 -14 0
-11 4 -18 9 -14 6 3 6 18 0 38 -5 17 -9 38 -9 44 0 20 20 15 21 -4 0 -12 2
-13 6 -5 3 7 -1 19 -7 27 -14 17 -5 50 10 40 6 -4 8 -10 5 -15 -3 -5 -1 -12 5
-15 8 -5 10 11 8 49 -2 36 -7 56 -15 56 -7 0 -13 12 -13 28 0 29 29 55 52 47
7 -2 21 7 32 21 16 23 17 31 7 65 -12 41 -27 50 -38 22 -5 -14 -8 -13 -15 6
-5 15 -14 21 -23 17 -17 -6 -19 2 -5 24 8 13 11 12 24 -5 14 -18 15 -18 16 -2
0 19 30 24 30 5 0 -9 4 -8 10 2 5 8 20 15 32 15 19 0 24 8 34 52 6 29 19 59
28 68 18 18 21 45 5 45 -5 0 -15 -14 -20 -30 -6 -17 -15 -30 -20 -30 -5 0 -9
-10 -9 -22 0 -13 -5 -30 -10 -38 -7 -11 -10 -5 -10 23 0 28 -4 37 -17 38 -14
0 -15 2 -3 6 26 11 42 33 37 53 -3 11 0 20 6 20 6 0 19 7 29 17 11 10 18 12
18 4 0 -9 5 -9 20 -1 14 8 20 8 20 0 0 -6 4 -9 9 -6 5 4 12 0 15 -6 3 -7 4 -2
3 12 -1 18 -7 24 -19 22 -10 -2 -18 2 -18 9 0 6 -7 9 -15 5 -17 -6 -19 2 -5
24 6 10 10 11 10 3 0 -8 15 -13 39 -13 33 0 40 4 45 25 7 28 41 63 74 76 12 5
22 15 22 24 0 8 6 14 13 13 6 -2 11 4 9 12 -2 9 4 7 18 -8 27 -29 68 -23 165
25 64 31 79 45 163 150 65 82 92 123 92 142 0 24 4 28 31 28 19 0 37 7 45 18
7 9 28 19 46 21 18 2 35 9 36 14 2 6 10 10 18 10 8 0 22 9 31 20 10 11 25 20
33 20 22 0 73 56 100 109 22 45 43 188 28 197 -4 3 1 14 11 25 10 11 19 30 19
42 0 31 40 115 72 152 26 31 38 73 45 159 3 44 13 92 21 107 8 15 13 41 13 56
-1 15 -3 21 -6 12 -2 -10 -11 -15 -21 -13 -29 7 -70 -95 -83 -204 -6 -51 -8
-100 -5 -108 3 -9 1 -12 -4 -9 -6 3 -10 1 -10 -5 0 -7 -9 -23 -20 -37 -13 -17
-18 -34 -14 -52 4 -19 3 -22 -4 -12 -8 11 -13 7 -27 -18 -9 -18 -15 -40 -13
-49 2 -9 -4 -24 -14 -32 -10 -8 -23 -39 -28 -69 -11 -61 -33 -101 -55 -101 -8
0 -15 -7 -15 -15 0 -8 -4 -15 -10 -15 -5 0 -10 5 -10 10 0 20 -30 9 -47 -17
-9 -16 -25 -36 -35 -46 -19 -19 -25 -42 -8 -32 6 3 10 1 10 -5 0 -7 -6 -10
-14 -7 -19 8 -38 -16 -30 -37 4 -10 1 -16 -8 -16 -8 0 -52 -36 -97 -80 -77
-74 -101 -88 -101 -56 0 7 27 46 60 87 90 110 170 216 170 224 0 4 9 19 19 34
28 38 102 181 113 216 26 83 57 226 54 251 -3 38 27 98 75 151 22 24 39 49 39
58 0 8 5 15 11 15 6 0 8 7 5 16 -7 18 34 94 51 94 7 0 18 11 25 24 16 30 87
88 99 80 13 -7 11 -51 -2 -59 -6 -4 -7 -19 -4 -36 5 -22 3 -29 -8 -29 -11 0
-13 -7 -9 -22 3 -14 2 -19 -6 -14 -7 4 -17 4 -23 0 -8 -4 -7 -9 2 -15 20 -13
39 -11 39 4 0 6 9 23 20 37 11 14 20 31 20 39 0 8 9 32 19 55 11 23 31 67 45
100 18 41 30 57 40 53 8 -3 20 1 26 9 8 9 32 14 71 14 49 0 62 4 86 26 24 22
35 25 71 21 41 -4 42 -4 25 12 -11 9 -31 23 -46 31 -41 23 -205 119 -280 164
-37 23 -107 61 -155 86 -100 52 -106 63 -73 140 12 27 21 62 21 79 0 29 -29
116 -51 155 -6 10 -22 52 -35 94 -14 41 -34 97 -46 124 l-20 48 -27 -38 c-36
-48 -175 -160 -352 -283 -103 -71 -277 -198 -388 -284 -117 -90 -298 -224
-351 -259 -19 -13 -105 -72 -190 -132 -168 -119 -409 -282 -441 -300 -11 -6
-31 -21 -44 -34 -44 -41 -86 2 -45 46 13 13 27 24 32 24 4 0 29 16 54 36 26
19 64 44 85 54 112 58 521 339 864 595 127 94 292 216 368 271 337 241 398
286 411 307 13 20 11 32 -17 116 l-32 95 -55 22 c-30 13 -76 23 -102 24 -36 0
-50 5 -58 19 -13 24 -13 205 -1 416 6 88 13 217 16 287 8 139 13 150 69 129
16 -7 34 -7 48 -1 22 8 22 9 -5 9 -38 1 -54 19 -54 61 0 43 23 68 62 66 17 -1
37 4 45 11 21 16 63 5 55 -14 -4 -11 -1 -13 11 -9 8 3 19 6 22 6 4 0 1 4 -6 9
-10 6 -9 10 7 14 12 3 19 1 15 -4 -3 -5 0 -9 5 -9 6 0 11 4 11 9 0 5 21 31 46
58 36 38 114 174 114 199 0 3 13 33 29 67 29 62 47 113 71 197 8 25 19 57 27
72 7 15 15 69 18 120 4 51 8 99 11 107 9 28 -17 89 -56 127 -44 43 -48 63 -26
136 8 25 12 56 9 67 -3 12 -1 21 5 21 5 0 18 33 27 73 9 39 27 99 40 132 12
33 28 85 35 115 7 30 22 71 33 90 18 29 21 51 22 145 0 106 -2 114 -39 205
-36 88 -40 105 -46 225 -8 136 -20 193 -63 285 -14 30 -42 93 -62 140 -20 47
-44 101 -53 120 -13 28 -211 235 -276 288 -9 7 -14 17 -12 21 3 4 -14 27 -38
50 -39 38 -48 42 -109 48 -37 3 -67 9 -67 13 0 15 13 18 36 10 15 -6 26 -6 30
1 11 18 -5 23 -84 23 -56 1 -76 4 -75 14 4 17 -16 15 -23 -3 -4 -9 -14 -13
-23 -10 -9 2 -38 -2 -65 -10 -47 -14 -48 -14 -43 5 6 22 -3 26 -21 8 -17 -17
-26 -3 -13 20 6 12 11 30 11 41 0 17 6 21 34 21 41 0 66 22 59 50 -3 13 0 20
8 20 11 0 11 2 -1 10 -22 14 -43 12 -37 -3 3 -8 -3 -14 -14 -14 -11 -1 -17 2
-14 8 12 18 -6 48 -41 69 -28 18 -51 22 -134 23 -68 2 -103 -2 -111 -10 -15
-15 -69 -17 -69 -3 0 6 -7 10 -15 10 -8 0 -23 4 -33 9 -9 5 -35 17 -56 27 -22
9 -49 25 -60 35 -24 23 -37 24 -30 4 10 -25 -16 -17 -44 13 -15 16 -49 37 -77
47 -27 10 -101 37 -163 61 -118 46 -144 52 -139 32 1 -8 -6 -12 -18 -10 -11 2
-28 4 -37 5 -10 1 -18 9 -18 18 0 10 -11 19 -31 23 -39 8 -44 8 -52 -1z m424
-226 c-10 -9 -11 -8 -5 6 3 10 9 15 12 12 3 -3 0 -11 -7 -18z m-826 -87 c-3
-5 -14 -10 -23 -10 -15 0 -15 2 -2 10 20 13 33 13 25 0z m1370 -14 c18 -13 18
-14 -8 -9 -15 3 -27 9 -27 14 0 13 13 11 35 -5z m85 -24 c0 -4 -5 -13 -12 -20
-18 -18 -28 -15 -28 8 0 13 7 20 20 20 11 0 20 -4 20 -8z m-412 -215 c7 3 12
-4 12 -19 0 -19 8 -26 39 -34 32 -9 38 -8 34 3 -7 18 6 50 15 37 4 -6 28 -17
54 -26 45 -14 48 -14 54 4 7 23 30 18 28 -5 -1 -9 1 -15 5 -13 3 2 22 -3 41
-11 19 -9 47 -17 61 -18 21 -2 26 1 22 16 -5 17 1 19 40 19 26 0 49 -6 56 -14
7 -8 23 -17 38 -21 20 -5 32 0 54 23 19 19 27 36 23 46 -4 11 -1 16 11 16 13
0 16 -6 12 -21 -4 -15 -2 -19 10 -15 8 3 25 3 39 0 19 -5 23 -11 18 -29 -5
-20 -1 -23 30 -27 42 -5 47 7 11 24 -17 8 -22 14 -14 19 7 4 18 5 26 2 16 -6
53 -75 53 -99 0 -16 -2 -15 -21 2 -14 13 -38 19 -80 21 -32 1 -59 -1 -59 -6 0
-4 -14 -6 -31 -3 -27 4 -30 8 -25 31 3 17 -3 10 -17 -19 -26 -52 -56 -61 -115
-33 -31 15 -36 15 -46 1 -9 -12 -29 -15 -89 -13 -72 2 -92 -4 -66 -21 8 -4 7
-10 -1 -18 -9 -8 -16 -5 -31 13 -11 13 -33 26 -49 28 -36 3 -36 0 -9 -39 26
-36 18 -48 -12 -19 -17 16 -25 18 -31 9 -6 -10 -11 -9 -22 4 -11 16 -66 43
-66 34 0 -16 15 -36 26 -36 8 0 14 -10 14 -22 l0 -21 -22 20 c-17 15 -31 20
-51 16 -27 -5 -28 -8 -23 -42 7 -36 7 -36 -8 -11 -8 14 -18 32 -21 40 -3 8
-14 31 -24 50 -10 19 -21 52 -25 74 -7 36 -6 38 13 33 25 -6 25 -8 5 32 -8 17
-19 29 -24 26 -4 -3 -10 4 -13 15 -4 15 0 20 13 20 10 0 20 -6 23 -14 5 -12
11 -12 31 -3 13 6 22 16 18 21 -3 6 8 1 24 -11 16 -11 35 -18 42 -16z m709 17
c-3 -3 -12 -4 -19 -1 -8 3 -5 6 6 6 11 1 17 -2 13 -5z m-1947 -14 c0 -5 -4
-10 -9 -10 -5 0 -18 -3 -28 -6 -16 -6 -16 -5 2 9 23 19 35 21 35 7z m1580 -61
c0 -5 -4 -9 -10 -9 -5 0 -10 7 -10 16 0 8 5 12 10 9 6 -3 10 -10 10 -16z
m-1628 -15 c-17 -12 -43 -17 -71 -15 -30 2 23 29 56 28 28 -1 30 -2 15 -13z
m1138 -19 c11 -13 10 -14 -4 -9 -11 4 -16 1 -17 -12 0 -12 -3 -14 -6 -6 -5 12
2 42 10 42 3 0 10 -7 17 -15z m-1587 -82 c-7 -2 -19 -2 -25 0 -7 3 -2 5 12 5
14 0 19 -2 13 -5z m2357 -14 c10 -18 10 -19 -7 -10 -45 26 -49 31 -26 31 12 0
27 -9 33 -21z m-916 -38 c19 -33 15 -54 -6 -33 -7 7 -22 12 -35 12 -26 0 -31
15 -7 24 10 4 14 12 10 22 -11 28 18 9 38 -25z m87 16 c-13 -13 -26 -3 -16 12
3 6 11 8 17 5 6 -4 6 -10 -1 -17z m-1615 -13 c-39 -14 -53 -13 -42 4 3 5 22 9
43 10 l38 0 -39 -14z m1689 6 c4 -6 -5 -10 -19 -10 -14 0 -26 5 -26 10 0 6 9
10 19 10 11 0 23 -4 26 -10z m-1775 -20 c0 -5 -4 -10 -9 -10 -5 0 -18 -3 -28
-6 -16 -5 -16 -4 1 10 23 18 36 20 36 6z m1497 -16 c-9 -9 -28 6 -21 18 4 6
10 6 17 -1 6 -6 8 -13 4 -17z m192 10 c5 4 12 -3 16 -14 3 -11 13 -20 21 -20
8 0 14 -7 14 -16 0 -8 -5 -12 -10 -9 -6 4 -6 -5 1 -22 26 -64 33 -73 56 -73
13 0 32 -9 44 -21 18 -18 20 -28 14 -71 -8 -54 -23 -49 -20 5 4 51 -57 104
-68 60 -3 -16 -5 -16 -11 2 -14 40 -59 120 -74 132 -8 7 -12 19 -9 28 4 8 2
15 -3 15 -6 0 -10 5 -10 11 0 8 4 8 15 -1 8 -6 18 -9 24 -6z m571 -26 c0 -6
-7 -5 -15 2 -8 7 -15 17 -15 22 0 6 7 5 15 -2 8 -7 15 -17 15 -22z m-806 -15
l18 -38 -31 29 -31 30 0 -37 c0 -44 -10 -47 -27 -10 -22 47 -17 63 20 63 29 0
36 -5 51 -37z m706 17 c0 -5 10 -11 23 -13 20 -4 20 -4 -3 -6 -25 -1 -50 14
-50 31 0 4 7 5 15 2 8 -4 15 -10 15 -14z m-652 -70 c0 -9 -3 -7 -8 5 -5 11 -8
29 -8 40 0 16 2 15 8 -5 4 -14 8 -32 8 -40z m66 34 c5 -14 4 -15 -9 -4 -17 14
-19 20 -6 20 5 0 12 -7 15 -16z m-307 -16 c-3 -8 -6 -5 -6 6 -1 11 2 17 5 13
3 -3 4 -12 1 -19z m1003 7 c0 -9 -6 -12 -15 -9 -8 4 -15 10 -15 15 0 5 7 9 15
9 8 0 15 -7 15 -15z m-1090 -20 c0 -8 -4 -15 -10 -15 -5 0 -10 7 -10 15 0 8 5
15 10 15 6 0 10 -7 10 -15z m-1303 -37 c-3 -8 -6 -5 -6 6 -1 11 2 17 5 13 3
-3 4 -12 1 -19z m2288 2 c3 -5 1 -10 -4 -10 -6 0 -11 5 -11 10 0 6 2 10 4 10
3 0 8 -4 11 -10z m-818 -37 c-3 -3 -14 0 -24 6 -17 10 -17 10 0 11 9 0 18 6
18 13 1 6 3 4 6 -6 3 -10 2 -21 0 -24z m110 15 c-3 -8 -6 -5 -6 6 -1 11 2 17
5 13 3 -3 4 -12 1 -19z m-927 -3 c0 -8 -4 -15 -10 -15 -5 0 -10 7 -10 15 0 8
5 15 10 15 6 0 10 -7 10 -15z m870 -55 c0 -5 -2 -10 -4 -10 -3 0 -8 5 -11 10
-3 6 -1 10 4 10 6 0 11 -4 11 -10z m-815 -120 c-13 -15 -22 -17 -29 -10 -12
12 8 30 33 30 11 0 10 -5 -4 -20z m-57 -36 c-9 -9 -21 -13 -28 -9 -9 6 -6 12
11 21 29 15 38 9 17 -12z m1482 -241 c-1 -27 -1 -27 -15 -9 -14 19 -12 36 6
36 5 0 9 -12 9 -27z m-990 -677 c0 -3 -4 -8 -10 -11 -5 -3 -10 -1 -10 4 0 6 5
11 10 11 6 0 10 -2 10 -4z m1200 -16 c0 -5 -4 -10 -10 -10 -5 0 -10 5 -10 10
0 6 5 10 10 10 6 0 10 -4 10 -10z m-2210 -79 c0 -12 -29 -35 -36 -28 -11 10 5
37 21 37 8 0 15 -4 15 -9z m2210 -6 c0 -8 -7 -15 -15 -15 -16 0 -20 12 -8 23
11 12 23 8 23 -8z m-340 -15 c0 -5 -4 -10 -10 -10 -5 0 -10 5 -10 10 0 6 5 10
10 10 6 0 10 -4 10 -10z m-62 -157 c-10 -2 -26 -2 -35 0 -10 3 -2 5 17 5 19 0
27 -2 18 -5z m443 -144 c18 6 35 9 37 6 6 -6 7 -5 -42 -38 -43 -29 -56 -27
-56 7 0 27 11 41 21 25 5 -9 15 -9 40 0z m-352 -53 c1 -14 -2 -16 -13 -7 -8 7
-11 22 -8 38 5 25 6 25 13 8 4 -11 8 -28 8 -39z m-1201 8 c31 -21 99 -175 86
-195 -3 -5 -16 -2 -30 7 -23 16 -24 16 -18 -2 4 -11 19 -37 34 -59 14 -23 33
-55 41 -73 7 -18 17 -32 21 -32 5 0 8 -5 8 -11 0 -14 108 -119 121 -119 5 0 9
-11 9 -25 0 -19 11 -32 48 -55 26 -16 52 -30 58 -30 31 0 84 -107 84 -170 0
-15 -12 -39 -27 -56 -30 -32 -40 -33 -138 -19 -89 13 -191 -16 -335 -96 -56
-31 -97 -25 -206 31 -106 54 -132 59 -194 34 -38 -15 -41 -15 -73 5 -55 34
-70 87 -42 154 14 34 46 71 113 130 18 16 32 34 32 41 0 7 18 32 41 57 22 24
54 64 71 89 60 86 160 210 169 210 5 0 9 7 9 15 0 8 5 15 12 15 6 0 9 3 5 6
-3 4 -22 -4 -42 -16 -20 -12 -39 -20 -42 -17 -6 7 12 67 35 117 9 19 16 42 17
50 0 28 99 38 133 14z m642 -75 c0 -7 37 -9 116 -7 99 4 118 2 137 -14 40 -32
57 -51 57 -65 0 -20 -18 -16 -30 7 -8 15 -15 18 -28 11 -34 -18 -132 -21 -169
-6 -20 8 -45 15 -56 15 -20 0 -67 43 -67 61 0 5 9 9 20 9 11 0 20 -5 20 -11z
m-130 -3 c0 -3 -4 -8 -10 -11 -5 -3 -10 -1 -10 4 0 6 5 11 10 11 6 0 10 -2 10
-4z m-990 -60 c0 -2 -7 -7 -16 -10 -8 -3 -12 -2 -9 4 6 10 25 14 25 6z m2990
-52 c0 -8 -27 -34 -37 -34 -4 0 -19 -12 -32 -25 -21 -23 -61 -35 -61 -17 2 29
130 105 130 76z m-830 -120 c0 -31 -23 -28 -28 4 -2 15 2 22 12 22 11 0 16 -9
16 -26z m680 11 c0 -8 -4 -15 -10 -15 -5 0 -10 7 -10 15 0 8 5 15 10 15 6 0
10 -7 10 -15z m68 -17 c-2 -6 -10 -14 -16 -16 -7 -2 -10 2 -6 12 7 18 28 22
22 4z m-148 -33 c0 -3 -9 -14 -21 -26 -15 -15 -24 -18 -32 -10 -8 8 -7 11 5
11 9 0 18 7 22 15 5 14 26 22 26 10z m30 -15 c0 -11 -4 -20 -9 -20 -5 0 -7 9
-4 20 3 11 7 20 9 20 2 0 4 -9 4 -20z m-100 0 c0 -5 -4 -10 -10 -10 -5 0 -10
-7 -10 -17 0 -9 -3 -14 -6 -10 -8 8 5 47 17 47 5 0 9 -4 9 -10z m260 -65 c-5
-11 -13 -19 -19 -17 -22 5 -23 -29 -2 -52 11 -12 21 -30 21 -40 0 -9 4 -25 9
-34 5 -10 7 -30 4 -45 -4 -22 -10 -27 -27 -25 -11 2 -25 13 -31 26 -11 25 -41
31 -31 7 5 -13 2 -13 -17 2 -13 9 -24 26 -25 36 0 11 -17 37 -38 58 -36 37
-40 68 -6 50 66 -33 129 -7 117 49 -5 24 -3 35 12 45 16 12 19 11 29 -13 7
-15 8 -35 4 -47z m16 -241 c-3 -9 -6 -20 -6 -25 0 -4 -7 -6 -15 -3 -24 9 -19
44 6 44 15 0 19 -4 15 -16z m-336 -96 c0 -5 -7 -8 -15 -8 -15 0 -20 21 -8 33
7 7 23 -11 23 -25z m293 -16 c-3 -15 -12 -33 -20 -40 -7 -8 -21 -28 -30 -45
-34 -67 -123 -119 -123 -72 0 8 8 16 18 19 24 8 129 106 114 106 -14 0 -5 28
16 52 20 24 34 13 25 -20z m-836 12 c-3 -3 -12 -4 -19 -1 -8 3 -5 6 6 6 11 1
17 -2 13 -5z m-2084 -223 c-4 -31 -9 -39 -17 -31 -6 6 -11 18 -11 28 0 9 -6
16 -14 14 -12 -2 -12 1 1 20 8 13 18 29 23 37 13 23 24 -19 18 -68z m1120 23
c-9 -25 -24 7 -16 36 l6 24 8 -22 c5 -12 6 -29 2 -38z m1567 7 c0 -6 -4 -13
-10 -16 -5 -3 -10 1 -10 9 0 9 5 16 10 16 6 0 10 -4 10 -9z m-2650 -11 c0 -5
-2 -10 -4 -10 -3 0 -8 5 -11 10 -3 6 -1 10 4 10 6 0 11 -4 11 -10z m-90 -46
c0 -7 -27 -34 -34 -34 -4 0 -1 9 6 20 12 19 28 27 28 14z m109 -45 c20 -7 36
-8 44 -2 6 6 23 7 37 3 14 -3 33 -2 42 4 12 7 22 6 35 -6 10 -8 35 -18 56 -22
40 -7 50 -30 17 -39 -11 -3 -20 -1 -20 3 0 13 -83 9 -100 -4 -33 -27 -131 -76
-152 -76 -13 0 -28 -8 -35 -19 -6 -10 -25 -21 -41 -24 -21 -4 -33 -14 -40 -35
-11 -33 -52 -51 -52 -24 0 18 37 112 60 152 8 14 13 28 13 31 -1 4 16 14 37
24 22 10 40 24 40 32 0 16 17 17 59 2z m936 -99 c3 -5 1 -10 -4 -10 -6 0 -11
5 -11 10 0 6 2 10 4 10 3 0 8 -4 11 -10z m345 -186 c0 -2 -7 -4 -15 -4 -8 0
-15 4 -15 10 0 5 7 7 15 4 8 -4 15 -8 15 -10z m-640 -29 c0 -8 -9 -15 -20 -15
-20 0 -26 11 -13 23 12 13 33 7 33 -8z m480 -85 c0 -5 -2 -10 -4 -10 -3 0 -8
5 -11 10 -3 6 -1 10 4 10 6 0 11 -4 11 -10z m51 -23 c-1 -12 -15 -9 -19 4 -3
6 1 10 8 8 6 -3 11 -8 11 -12z m57 -5 c2 -7 -3 -12 -12 -12 -9 0 -16 7 -16 16
0 17 22 14 28 -4z m-1438 -2096 c0 -3 -4 -8 -10 -11 -5 -3 -10 -1 -10 4 0 6 5
11 10 11 6 0 10 -2 10 -4z m-120 -71 c0 -2 -10 -10 -22 -16 -21 -11 -22 -11
-9 4 13 16 31 23 31 12z m-48 -118 c-23 -23 -42 -37 -42 -30 0 13 72 84 79 77
3 -2 -14 -24 -37 -47z m-52 -53 c0 -16 -23 -44 -35 -44 -19 0 -19 9 2 32 16
17 33 24 33 12z m1665 -132 c0 -18 -20 -15 -23 4 -3 10 1 15 10 12 7 -3 13
-10 13 -16z m305 -20 c0 -15 -2 -15 -10 -2 -13 20 -13 33 0 25 6 -3 10 -14 10
-23z m-240 -18 c0 -8 -4 -12 -10 -9 -5 3 -10 10 -10 16 0 5 5 9 10 9 6 0 10
-7 10 -16z m-1820 -75 c0 -5 -4 -9 -10 -9 -5 0 -10 7 -10 16 0 8 5 12 10 9 6
-3 10 -10 10 -16z m1996 -16 c-8 -8 -36 5 -36 17 0 7 6 7 21 0 11 -7 18 -14
15 -17z m114 15 c0 -23 -14 -35 -47 -41 -26 -5 -35 -2 -43 13 -13 25 -13 28 8
33 37 10 82 7 82 -5z m-2091 -84 c6 4 11 3 11 -3 0 -15 -23 -26 -28 -13 -2 7
-10 12 -18 12 -9 0 -12 -5 -8 -12 5 -7 3 -8 -6 -3 -10 6 -9 11 5 22 14 9 21
10 26 2 4 -6 12 -8 18 -5z m835 -50 c24 -29 30 -44 27 -73 -1 -20 -9 -43 -17
-52 -8 -8 -14 -20 -14 -25 0 -6 -17 -27 -39 -48 l-38 -38 -24 38 c-14 23 -24
57 -26 88 -3 50 -2 52 41 86 25 19 45 41 45 48 1 20 12 14 45 -24z m-504 -29
c0 -9 -6 -12 -15 -9 -8 4 -12 10 -9 15 8 14 24 10 24 -6z m-85 -45 c3 -5 1
-10 -4 -10 -6 0 -11 5 -11 10 0 6 2 10 4 10 3 0 8 -4 11 -10z m-140 -59 c3 -5
1 -12 -5 -16 -5 -3 -10 1 -10 9 0 18 6 21 15 7z m406 -39 c9 -19 25 -39 35
-46 17 -13 17 -34 -2 -126 l-5 -25 15 25 15 25 1 -27 c0 -16 -5 -28 -12 -28
-10 0 -10 -2 -1 -8 16 -10 4 -62 -14 -62 -13 0 -14 -9 -9 -52 5 -35 3 -53 -4
-58 -15 -9 -268 116 -297 147 -12 13 -27 41 -33 64 -6 22 -20 49 -31 60 -10
10 -19 23 -19 27 0 5 28 16 63 25 73 18 151 47 204 75 51 27 72 23 94 -16z
m-201 8 c0 -13 -28 -25 -38 -16 -3 4 0 11 8 16 20 13 30 12 30 0z m335 -239
c3 -5 1 -12 -5 -16 -5 -3 -10 1 -10 9 0 18 6 21 15 7z m-78 -163 c-3 -8 -6 -5
-6 6 -1 11 2 17 5 13 3 -3 4 -12 1 -19z m1838 -28 c-4 -14 -2 -20 7 -18 7 2
13 -4 13 -12 0 -9 -8 -14 -21 -13 -17 2 -20 -2 -16 -22 2 -14 12 -26 21 -26 9
-1 3 -4 -14 -8 -16 -4 -36 -5 -42 -3 -18 6 -16 41 3 49 8 3 13 11 10 18 -5 15
20 55 35 55 6 0 7 -9 4 -20z m312 -42 c-3 -8 -6 -5 -6 6 -1 11 2 17 5 13 3 -3
4 -12 1 -19z m-403 -4 c22 -9 20 -20 -4 -20 -11 0 -20 6 -20 13 0 15 2 15 24
7z m-187 -26 c-3 -8 -6 -5 -6 6 -1 11 2 17 5 13 3 -3 4 -12 1 -19z m-2046 -77
c-13 -23 -4 -54 12 -44 7 4 8 0 2 -13 -4 -10 -10 -31 -13 -46 -6 -39 -18 -35
-26 10 -8 53 -7 100 3 120 5 9 13 26 17 37 7 17 9 15 12 -12 2 -18 -2 -41 -7
-52z m2389 49 c0 -5 7 -10 15 -10 12 0 13 -3 3 -19 -7 -11 -15 -18 -19 -16
-10 7 -17 55 -8 55 5 0 9 -4 9 -10z m-275 -30 c3 -5 1 -10 -4 -10 -6 0 -11 5
-11 10 0 6 2 10 4 10 3 0 8 -4 11 -10z m-365 -35 c0 -8 -4 -15 -10 -15 -5 0
-10 7 -10 15 0 8 5 15 10 15 6 0 10 -7 10 -15z m422 -17 c-9 -9 -12 -7 -12 12
0 19 3 21 12 12 9 -9 9 -15 0 -24z m-242 8 c0 -3 -4 -8 -10 -11 -5 -3 -10 -1
-10 4 0 6 5 11 10 11 6 0 10 -2 10 -4z m-1780 -25 c0 -11 -4 -23 -10 -26 -6
-4 -10 5 -10 19 0 14 5 26 10 26 6 0 10 -9 10 -19z m2010 -15 c0 -3 -4 -8 -10
-11 -5 -3 -10 -1 -10 4 0 6 5 11 10 11 6 0 10 -2 10 -4z m-633 -28 c-3 -8 -6
-5 -6 6 -1 11 2 17 5 13 3 -3 4 -12 1 -19z m190 0 c-3 -8 -6 -5 -6 6 -1 11 2
17 5 13 3 -3 4 -12 1 -19z m483 -19 c0 -11 -4 -17 -10 -14 -5 3 -10 13 -10 21
0 8 5 14 10 14 6 0 10 -9 10 -21z m-607 -17 c-6 -24 -23 -30 -23 -9 0 13 21
39 26 34 2 -2 1 -13 -3 -25z m264 22 c-3 -3 -12 -4 -19 -1 -8 3 -5 6 6 6 11 1
17 -2 13 -5z m382 -25 c-19 -12 -24 -2 -8 17 9 11 14 13 17 4 3 -7 -2 -16 -9
-21z m-532 -14 c-4 -8 -11 -15 -17 -15 -14 0 -13 27 3 33 16 6 21 1 14 -18z
m88 5 c9 7 16 6 25 -5 10 -12 16 -13 26 -4 8 6 14 7 14 2 0 -14 -40 -45 -40
-30 -1 6 -7 1 -14 -13 -8 -14 -12 -28 -10 -32 4 -7 -17 -6 -65 1 -3 1 0 6 7
13 7 7 12 20 12 30 0 21 23 51 28 37 3 -6 9 -6 17 1z m197 -21 c5 -33 -14 -51
-35 -30 -8 8 -7 11 6 11 14 0 16 4 7 19 -13 26 -13 31 4 31 8 0 16 -13 18 -31z
m218 -16 c0 -3 -9 -1 -20 2 -14 5 -20 2 -20 -10 0 -9 -4 -14 -8 -11 -5 3 -7
18 -4 35 l4 29 24 -21 c13 -11 24 -22 24 -24z m-1955 28 c3 -5 1 -12 -5 -16
-5 -3 -10 1 -10 9 0 18 6 21 15 7z m-95 -31 c0 -19 -23 -59 -38 -65 -8 -3 -19
0 -24 7 -4 7 -8 9 -8 3 0 -5 -5 -2 -11 8 -5 9 -7 22 -4 27 9 14 42 12 48 -2 3
-7 6 -3 6 10 1 21 31 33 31 12z m1516 -38 c-12 -11 -18 7 -10 30 l8 23 4 -23
c2 -13 1 -26 -2 -30z m264 38 c0 -5 -2 -10 -4 -10 -3 0 -8 5 -11 10 -3 6 -1
10 4 10 6 0 11 -4 11 -10z m170 1 c0 -5 -13 -19 -29 -30 -22 -16 -30 -18 -34
-8 -3 8 -1 20 4 28 5 8 9 10 9 6 0 -4 8 -3 18 2 22 13 32 14 32 2z m-550 -32
c0 -11 -4 -17 -10 -14 -5 3 -10 13 -10 21 0 8 5 14 10 14 6 0 10 -9 10 -21z
m-60 1 c0 -5 -7 -10 -16 -10 -8 0 -12 5 -9 10 3 6 10 10 16 10 5 0 9 -4 9 -10z
m-1274 -58 c-11 -10 -15 4 -8 28 l7 25 3 -23 c2 -13 1 -26 -2 -30z m1601 26
c-3 -8 -6 -5 -6 6 -1 11 2 17 5 13 3 -3 4 -12 1 -19z m118 -11 c0 -7 8 -11 18
-9 9 2 17 -2 17 -8 0 -6 -8 -10 -17 -8 -10 1 -24 -1 -31 -6 -21 -13 -27 2 -12
29 13 24 25 25 25 2z m94 9 c10 -12 8 -13 -8 -9 -12 3 -18 9 -15 14 7 12 10
11 23 -5z m-1733 -12 c-3 -9 -6 -19 -6 -23 0 -4 -6 -8 -13 -8 -11 0 -11 6 -3
24 12 25 32 32 22 7z m1411 -16 c-3 -8 -6 -5 -6 6 -1 11 2 17 5 13 3 -3 4 -12
1 -19z m302 -20 c0 -28 -2 -30 -9 -13 -12 28 -12 45 0 45 6 0 10 -15 9 -32z
m-714 12 c3 -5 1 -10 -4 -10 -6 0 -11 5 -11 10 0 6 2 10 4 10 3 0 8 -4 11 -10z
m465 -9 c0 -11 -4 -23 -10 -26 -5 -3 -10 -15 -10 -26 0 -22 -11 -24 -28 -7 -8
8 -12 9 -12 1 0 -6 5 -13 11 -15 6 -2 9 -15 6 -28 l-4 -25 -8 23 c-13 38 -33
25 -39 -25 -5 -42 -10 -77 -15 -93 -1 -3 -5 1 -10 9 -6 9 -4 23 6 38 10 16 13
34 9 58 -5 27 -3 37 9 41 18 7 20 34 3 35 -10 0 -10 2 0 6 6 2 12 14 12 26 1
20 2 21 14 5 17 -24 33 -23 41 2 8 26 25 26 25 1z m-110 -15 c0 -26 -15 -43
-24 -28 -7 12 4 52 15 52 5 0 9 -11 9 -24z m-848 -34 c10 -37 -4 -93 -27 -112
-7 -6 -17 -25 -20 -42 -4 -18 -15 -32 -27 -36 -11 -2 -17 -10 -14 -18 7 -18
-15 -30 -24 -13 -5 8 -18 25 -30 39 -18 20 -23 22 -30 10 -6 -8 -10 -21 -10
-27 0 -7 -5 -13 -11 -13 -18 0 -2 75 26 128 14 26 34 63 45 82 l20 35 0 -33
c0 -17 -5 -32 -11 -32 -5 0 -7 -5 -3 -11 4 -8 9 -7 16 2 7 11 11 11 15 2 2 -7
17 -13 31 -13 23 1 25 2 10 11 -20 11 -23 31 -7 60 15 29 41 19 51 -19z m237
17 c32 23 49 14 35 -17 -4 -9 -8 -26 -8 -37 -1 -11 -6 -19 -13 -18 -16 3 -37
-58 -23 -67 6 -4 8 -18 5 -31 -3 -14 -2 -36 4 -49 l10 -25 0 23 c1 32 20 64
32 56 22 -13 -25 -136 -49 -127 -11 5 -13 1 -7 -15 4 -13 2 -22 -4 -22 -6 0
-8 -12 -4 -31 4 -19 1 -34 -6 -38 -6 -4 -13 -25 -15 -46 -2 -22 -9 -41 -15
-43 -14 -5 -15 -32 -1 -32 6 0 10 -4 10 -10 0 -5 -9 -10 -19 -10 -14 0 -18 -5
-14 -20 4 -14 0 -20 -11 -20 -9 0 -16 8 -16 20 0 11 -7 20 -15 20 -17 0 -19
13 -6 57 6 19 6 35 1 38 -5 3 -7 13 -3 23 4 11 0 10 -11 -5 -9 -12 -16 -26
-15 -30 5 -27 -1 -35 -16 -23 -12 10 -15 10 -15 -4 0 -9 5 -16 11 -16 5 0 7
-4 4 -10 -13 -21 -25 -9 -25 26 0 31 -2 35 -15 24 -8 -7 -15 -25 -15 -41 0
-29 -14 -39 -23 -16 -4 9 -7 9 -14 0 -9 -13 -53 -7 -53 7 0 5 7 15 15 24 8 8
12 22 9 30 -4 11 -1 16 10 16 9 0 16 -8 16 -20 0 -12 7 -20 16 -20 12 0 15 6
10 23 -3 12 -6 33 -6 46 0 24 0 24 -15 5 -14 -18 -14 -18 -15 0 0 33 31 141
46 157 10 11 11 18 4 21 -6 2 -8 16 -4 35 6 29 8 30 35 23 26 -8 29 -6 29 15
0 14 7 25 16 27 20 4 45 75 38 105 -7 25 -4 26 20 17 9 -3 16 -17 16 -31 0
-22 20 -53 34 -53 10 0 6 24 -7 50 -10 18 -10 30 -3 42 10 16 11 16 18 -3 l8
-20 29 20z m111 12 c0 -5 -6 -16 -13 -23 -8 -7 -16 -20 -20 -28 -3 -8 -6 -1
-6 16 -1 17 2 34 6 37 10 10 33 8 33 -2z m-320 -21 c0 -5 -5 -10 -11 -10 -5 0
-7 5 -4 10 3 6 8 10 11 10 2 0 4 -4 4 -10z m370 0 c0 -5 -7 -10 -16 -10 -8 0
-12 5 -9 10 3 6 10 10 16 10 5 0 9 -4 9 -10z m110 -14 c0 4 7 1 15 -6 13 -10
13 -15 3 -21 -7 -4 -18 -4 -24 2 -6 5 -18 7 -27 3 -18 -7 -31 11 -23 33 6 14
9 14 31 -1 14 -9 25 -14 25 -10z m210 -40 c-15 -15 -12 -53 5 -70 17 -16 21
-66 5 -66 -5 0 -10 8 -10 19 0 10 -7 32 -15 47 -17 34 -19 60 -5 69 6 3 10 21
11 38 l1 32 9 -30 c5 -18 5 -33 -1 -39z m-290 34 c0 -11 -4 -20 -10 -20 -5 0
-10 9 -10 20 0 11 5 20 10 20 6 0 10 -9 10 -20z m542 -2 c-7 -7 -12 -8 -12 -2
0 14 12 26 19 19 2 -3 -1 -11 -7 -17z m173 8 c0 -3 -12 -13 -27 -20 -23 -12
-27 -12 -32 1 -11 27 -6 33 27 29 17 -2 32 -6 32 -10z m35 -51 c0 -5 -5 -3
-10 5 -5 8 -10 20 -10 25 0 6 5 3 10 -5 5 -8 10 -19 10 -25z m-350 15 c0 -5
-4 -10 -10 -10 -5 0 -10 5 -10 10 0 6 5 10 10 10 6 0 10 -4 10 -10z m-355 -46
c-12 -13 -19 -14 -30 -4 -21 17 -19 25 8 37 29 14 45 -10 22 -33z m168 -12 c8
-10 5 -14 -12 -19 -19 -5 -22 -11 -17 -34 7 -39 -11 -37 -19 1 -4 20 -1 43 12
69 15 32 19 35 21 17 2 -11 9 -27 15 -34z m-245 13 c4 -29 -12 -47 -35 -38
-27 11 -7 79 22 70 5 -2 11 -16 13 -32z m163 -44 c-4 -25 -5 -24 -12 9 -4 19
-5 39 -1 44 9 15 19 -25 13 -53z m606 37 c-3 -8 -6 -5 -6 6 -1 11 2 17 5 13 3
-3 4 -12 1 -19z m-867 3 c0 -6 -4 -13 -10 -16 -5 -3 -10 1 -10 9 0 9 5 16 10
16 6 0 10 -4 10 -9z m494 -28 c-1 -16 -2 -36 -3 -46 0 -10 -5 -16 -10 -13 -4
3 -6 18 -4 33 9 56 20 72 17 26z m-118 -7 c-4 -15 -1 -26 7 -29 9 -3 9 -7 0
-19 -10 -11 -10 -17 0 -27 9 -11 9 -14 0 -18 -7 -3 -13 -11 -13 -18 0 -19 21
-30 30 -15 5 8 9 7 13 -4 4 -10 -4 -25 -21 -41 -20 -18 -24 -27 -15 -36 6 -6
9 -18 6 -25 -3 -8 2 -17 11 -20 9 -3 14 -10 11 -15 -3 -4 -12 -6 -20 -2 -9 3
-15 -1 -15 -11 0 -9 -5 -16 -11 -16 -6 0 -8 9 -4 20 7 23 -2 60 -16 60 -5 0
-7 -11 -3 -25 5 -22 3 -24 -12 -18 -23 8 -34 22 -34 44 0 11 9 15 33 15 25 -1
33 3 35 20 2 12 -4 24 -13 27 -12 5 -14 1 -8 -21 5 -24 4 -25 -9 -14 -16 13
-14 46 5 69 5 7 7 20 3 28 -3 9 0 15 10 15 9 0 14 8 13 23 -4 44 1 77 12 77 7
0 9 -9 5 -24z m274 21 c0 -2 -7 -18 -16 -35 -11 -23 -21 -31 -37 -28 -11 1
-23 9 -25 16 -3 9 2 11 17 7 17 -4 21 -2 17 8 -3 8 3 19 12 24 17 11 32 14 32
8z m-455 -17 c3 -5 -1 -10 -9 -10 -9 0 -16 5 -16 10 0 6 4 10 9 10 6 0 13 -4
16 -10z m15 -54 c0 -16 -18 -31 -27 -22 -8 8 5 36 17 36 5 0 10 -6 10 -14z
m80 -13 c0 -5 -4 -15 -10 -23 -11 -18 -25 -7 -17 15 6 15 27 21 27 8z m252
-29 c-2 -24 1 -30 19 -31 12 -1 24 -5 27 -8 10 -10 -13 -38 -33 -41 -11 -2
-21 -8 -23 -14 -2 -6 -12 5 -22 24 -14 29 -15 41 -6 71 14 45 42 44 38 -1z
m61 29 c-7 -2 -21 -2 -30 0 -10 3 -4 5 12 5 17 0 24 -2 18 -5z m34 -45 c-3 -7
-5 -2 -5 12 0 14 2 19 5 13 2 -7 2 -19 0 -25z m-437 18 c0 -3 -4 -8 -10 -11
-5 -3 -10 -1 -10 4 0 6 5 11 10 11 6 0 10 -2 10 -4z m-703 -28 c-3 -8 -6 -5
-6 6 -1 11 2 17 5 13 3 -3 4 -12 1 -19z m664 -18 c5 0 9 5 9 12 0 6 2 9 5 6 3
-3 3 -13 -1 -22 -4 -12 -10 -14 -19 -6 -6 5 -16 6 -20 2 -5 -4 -5 1 -2 11 4
10 8 24 8 30 1 7 4 2 6 -10 2 -13 9 -23 14 -23z m717 28 c7 -7 12 -18 12 -25
0 -11 -4 -11 -20 -1 -11 7 -20 18 -20 25 0 16 12 17 28 1z m-374 -83 c-4 -8
-8 -15 -10 -15 -2 0 -4 7 -4 15 0 8 4 15 10 15 5 0 7 -7 4 -15z m52 -31 c-3
-9 -6 -24 -6 -35 0 -10 -7 -19 -15 -19 -8 0 -15 -4 -15 -10 0 -5 5 -10 10 -10
6 0 10 -4 10 -10 0 -5 -7 -10 -15 -10 -14 0 -19 11 -16 38 3 21 -9 13 -19 -13
-10 -25 -30 -35 -30 -14 0 6 -7 9 -15 5 -9 -3 -15 0 -15 9 0 19 17 28 22 13 3
-8 9 -4 17 10 11 20 10 22 -14 22 -15 0 -25 6 -25 14 0 21 69 15 85 -7 14 -19
25 -13 25 15 0 10 5 18 11 18 6 0 8 -7 5 -16z m-238 -69 c12 -4 22 -14 22 -23
0 -12 -3 -13 -12 -4 -7 7 -17 8 -29 1 -14 -7 -21 -5 -28 10 -16 30 -7 33 47
16z m-131 -85 c-13 -19 -14 -19 -27 5 -11 20 -11 27 0 40 11 14 14 13 27 -5
12 -17 12 -23 0 -40z m203 36 c0 -3 -4 -8 -10 -11 -5 -3 -10 -1 -10 4 0 6 5
11 10 11 6 0 10 -2 10 -4z m-683 -87 c6 -6 8 -19 6 -30 -5 -18 -7 -17 -19 7
-8 14 -14 28 -14 30 0 8 16 4 27 -7z m556 -4 c4 -8 2 -17 -3 -20 -6 -4 -10 3
-10 14 0 25 6 27 13 6z m-14 -51 c3 -16 1 -17 -13 -5 -14 12 -16 11 -17 -5 0
-11 -3 -14 -6 -6 -7 19 5 44 20 40 6 -3 14 -13 16 -24z m-568 -21 c-9 -16 -10
-14 -11 12 0 21 3 26 11 18 8 -8 8 -16 0 -30z m633 16 c-3 -5 -10 -7 -15 -3
-5 3 -7 10 -3 15 3 5 10 7 15 3 5 -3 7 -10 3 -15z m-437 -11 c-3 -8 -6 -5 -6
6 -1 11 2 17 5 13 3 -3 4 -12 1 -19z m-227 5 c0 -14 -19 -38 -25 -32 -8 8 5
39 16 39 5 0 9 -3 9 -7z m485 -74 c11 -17 -1 -21 -15 -4 -8 9 -8 15 -2 15 6 0
14 -5 17 -11z m-469 -54 c-1 -25 -10 -32 -20 -16 -7 11 3 41 14 41 4 0 7 -11
6 -25z m434 -125 c0 -5 -5 -10 -11 -10 -5 0 -7 5 -4 10 3 6 8 10 11 10 2 0 4
-4 4 -10z"/>
<path d="M6360 9620 c0 -5 12 -10 26 -10 14 0 23 4 19 10 -3 6 -15 10 -26 10
-10 0 -19 -4 -19 -10z"/>
<path d="M5690 9520 c0 -20 5 -30 15 -30 16 0 19 17 9 44 -10 26 -24 18 -24
-14z"/>
<path d="M4026 3251 c-3 -4 -27 -14 -53 -20 -86 -22 -95 -28 -81 -51 23 -36
76 -19 137 44 25 26 30 36 19 36 -9 0 -19 -4 -22 -9z"/>
<path d="M5495 2589 c-4 -6 -3 -15 3 -21 6 -6 11 -4 15 6 7 18 -9 31 -18 15z"/>
<path d="M4501 2414 c0 -11 3 -14 6 -6 3 7 2 16 -1 19 -3 4 -6 -2 -5 -13z"/>
<path d="M4431 2234 c0 -11 3 -14 6 -6 3 7 2 16 -1 19 -3 4 -6 -2 -5 -13z"/>
<path d="M4675 2308 c-4 -18 -9 -43 -10 -55 -3 -22 -3 -22 21 -7 13 9 24 20
24 25 0 5 9 9 20 9 29 0 24 23 -9 43 -38 22 -37 22 -46 -15z"/>
<path d="M4580 2210 c0 -5 5 -10 11 -10 5 0 7 5 4 10 -3 6 -8 10 -11 10 -2 0
-4 -4 -4 -10z"/>
<path d="M4724 2206 c-4 -10 -2 -22 4 -28 8 -8 13 -7 18 6 4 10 2 22 -4 28 -8
8 -13 7 -18 -6z"/>
<path d="M4656 2201 c-4 -7 -5 -15 -2 -18 9 -9 19 4 14 18 -4 11 -6 11 -12 0z"/>
<path d="M4717 2143 c-4 -3 -7 -17 -7 -29 0 -14 -8 -25 -20 -29 -11 -3 -20
-15 -20 -26 0 -25 12 -24 37 4 31 34 40 111 10 80z"/>
<path d="M4660 2119 c0 -5 5 -7 10 -4 6 3 10 8 10 11 0 2 -4 4 -10 4 -5 0 -10
-5 -10 -11z"/>
<path d="M4671 1984 c0 -11 3 -14 6 -6 3 7 2 16 -1 19 -3 4 -6 -2 -5 -13z"/>
<path d="M4094 10137 c-3 -9 -9 -15 -13 -13 -14 9 -93 -33 -85 -46 5 -7 2 -9
-9 -5 -8 3 -21 -1 -27 -8 -10 -12 -4 -13 42 -8 87 10 101 16 110 48 8 32 -7
60 -18 32z"/>
<path d="M4130 10130 c0 -5 7 -10 15 -10 8 0 15 5 15 10 0 6 -7 10 -15 10 -8
0 -15 -4 -15 -10z"/>
<path d="M4806 10088 c3 -4 9 -8 15 -8 5 0 9 4 9 8 0 5 -7 9 -15 9 -8 0 -12
-4 -9 -9z"/>
<path d="M4156 10012 c-26 -16 -38 -35 -18 -30 17 4 62 34 62 41 0 10 -11 8
-44 -11z"/>
<path d="M4830 10020 c-12 -8 -9 -10 13 -10 15 0 27 5 27 10 0 13 -20 13 -40
0z"/>
<path d="M3838 9981 c-60 -22 -118 -53 -118 -64 0 -5 9 -5 21 -2 18 6 20 4 14
-14 -8 -25 -8 -25 80 -1 53 14 62 19 38 19 -18 1 -33 5 -33 9 0 13 52 36 74
33 22 -3 76 18 76 30 0 10 -60 7 -77 -4 -8 -5 -13 -4 -13 2 0 13 -2 13 -62 -8z
m-28 -61 c0 -5 -4 -10 -10 -10 -5 0 -10 5 -10 10 0 6 5 10 10 10 6 0 10 -4 10
-10z"/>
<path d="M4110 9950 c0 -5 4 -10 9 -10 6 0 13 5 16 10 3 6 -1 10 -9 10 -9 0
-16 -4 -16 -10z"/>
<path d="M3690 9876 c0 -9 30 -14 35 -6 4 6 -3 10 -14 10 -12 0 -21 -2 -21 -4z"/>
<path d="M4295 9781 c-3 -5 -1 -12 5 -16 5 -3 10 1 10 9 0 18 -6 21 -15 7z"/>
<path d="M5230 8990 c0 -5 7 -10 15 -10 8 0 15 5 15 10 0 6 -7 10 -15 10 -8 0
-15 -4 -15 -10z"/>
<path d="M5538 8173 c7 -3 16 -2 19 1 4 3 -2 6 -13 5 -11 0 -14 -3 -6 -6z"/>
<path d="M3930 8115 c0 -8 7 -15 16 -15 14 0 14 3 4 15 -7 8 -14 15 -16 15 -2
0 -4 -7 -4 -15z"/>
<path d="M5820 8110 c0 -5 5 -10 11 -10 5 0 7 5 4 10 -3 6 -8 10 -11 10 -2 0
-4 -4 -4 -10z"/>
<path d="M6067 7983 c-10 -10 -8 -63 2 -63 13 0 24 51 13 62 -4 4 -11 5 -15 1z"/>
<path d="M3393 7793 c-20 -7 -18 -123 2 -123 15 0 19 13 29 88 6 42 1 48 -31
35z"/>
<path d="M3290 7632 c0 -78 34 -113 95 -98 22 6 25 12 25 54 l0 47 -42 11
c-24 6 -51 14 -60 19 -16 6 -18 1 -18 -33z"/>
<path d="M3633 7173 c15 -2 37 -2 50 0 12 2 0 4 -28 4 -27 0 -38 -2 -22 -4z"/>
<path d="M5990 7090 c0 -16 5 -30 10 -30 6 0 10 14 10 30 0 17 -4 30 -10 30
-5 0 -10 -13 -10 -30z"/>
<path d="M6034 7019 c-7 -12 15 -41 27 -33 14 8 11 31 -6 37 -8 4 -17 2 -21
-4z"/>
<path d="M6000 7009 c0 -5 5 -7 10 -4 6 3 10 8 10 11 0 2 -4 4 -10 4 -5 0 -10
-5 -10 -11z"/>
<path d="M6062 6950 c-19 -31 -14 -63 13 -83 29 -21 31 -16 9 18 -12 18 -13
28 -5 44 21 39 7 58 -17 21z"/>
<path d="M6012 6930 c0 -14 2 -19 5 -12 2 6 2 18 0 25 -3 6 -5 1 -5 -13z"/>
<path d="M6110 6710 c-10 -18 -9 -24 1 -31 18 -11 33 16 21 38 -9 14 -11 14
-22 -7z"/>
<path d="M6180 6574 c0 -8 5 -12 10 -9 6 4 8 11 5 16 -9 14 -15 11 -15 -7z"/>
<path d="M6815 6550 c3 -5 8 -10 11 -10 2 0 4 5 4 10 0 6 -5 10 -11 10 -5 0
-7 -4 -4 -10z"/>
<path d="M6056 6504 c-5 -18 -3 -30 6 -35 18 -11 30 4 26 32 -4 32 -24 35 -32
3z"/>
<path d="M5947 6483 c-4 -3 -7 -11 -7 -17 0 -6 5 -5 12 2 6 6 9 14 7 17 -3 3
-9 2 -12 -2z"/>
<path d="M6728 6463 c7 -3 16 -2 19 1 4 3 -2 6 -13 5 -11 0 -14 -3 -6 -6z"/>
<path d="M5830 6320 c0 -5 4 -10 9 -10 6 0 13 5 16 10 3 6 -1 10 -9 10 -9 0
-16 -4 -16 -10z"/>
<path d="M5760 6290 c0 -5 5 -10 10 -10 6 0 10 5 10 10 0 6 -4 10 -10 10 -5 0
-10 -4 -10 -10z"/>
<path d="M4157 6274 c3 -8 -2 -11 -16 -7 -16 4 -20 2 -15 -10 6 -17 83 -33
109 -23 9 3 32 -1 52 -9 41 -17 43 -18 43 -7 0 5 -12 14 -27 21 -15 7 -33 21
-40 31 -15 21 -114 25 -106 4z"/>
<path d="M5773 6241 c-31 -26 -29 -43 5 -39 21 2 28 9 30 31 4 32 -4 33 -35 8z"/>
<path d="M5088 6173 c7 -3 16 -2 19 1 4 3 -2 6 -13 5 -11 0 -14 -3 -6 -6z"/>
<path d="M5665 6099 c-4 -6 -5 -12 -2 -15 7 -7 37 7 37 17 0 13 -27 11 -35 -2z"/>
<path d="M4460 5995 c-7 -9 -20 -13 -28 -10 -8 3 -21 0 -28 -6 -10 -8 -14 -8
-14 0 0 6 -7 11 -15 11 -21 0 -19 -42 3 -61 27 -23 127 -43 152 -29 16 8 20 8
20 -4 0 -39 111 -6 132 40 6 13 15 21 19 18 5 -3 9 0 9 6 0 6 10 14 22 19 l23
8 -23 7 c-15 5 -32 2 -48 -9 -22 -14 -33 -15 -74 -5 -27 6 -62 10 -78 9 -16
-2 -36 2 -44 9 -12 10 -18 9 -28 -3z"/>
<path d="M4780 4986 c0 -26 15 -43 24 -27 4 5 0 11 -6 14 -10 3 -10 7 1 20 12
15 11 17 -3 17 -10 0 -16 -9 -16 -24z"/>
<path d="M4660 4174 c0 -8 5 -12 10 -9 6 3 10 10 10 16 0 5 -4 9 -10 9 -5 0
-10 -7 -10 -16z"/>
<path d="M4545 4089 c-4 -6 -5 -12 -2 -15 2 -3 7 2 10 11 7 17 1 20 -8 4z"/>
<path d="M3627 3913 c-10 -9 -9 -23 2 -23 5 0 11 7 15 15 5 15 -5 20 -17 8z"/>
<path d="M9250 3290 c0 -11 6 -29 13 -40 10 -17 9 -22 -1 -29 -12 -7 -11 -14
2 -40 9 -17 22 -31 28 -31 9 0 9 -3 1 -11 -9 -9 -3 -23 23 -57 19 -25 34 -51
34 -59 0 -7 11 -31 25 -53 14 -22 25 -42 25 -45 0 -10 50 -112 70 -140 25 -38
25 -35 -6 50 -14 39 -34 95 -44 125 -19 59 -156 350 -165 350 -3 0 -5 -9 -5
-20z"/>
<path d="M8685 3259 c-105 -11 -315 -48 -340 -59 -15 -7 -6 -9 32 -8 29 1 55
-1 59 -5 3 -3 19 4 35 16 24 17 46 22 119 24 51 2 92 -1 95 -7 10 -16 23 -12
30 10 5 15 15 20 39 20 38 0 48 -9 67 -62 15 -44 25 -41 20 8 -2 32 0 34 26
34 16 0 34 -5 40 -11 9 -9 113 -22 113 -14 0 5 -97 34 -150 44 -94 19 -103 19
-185 10z"/>
<path d="M9062 3168 c3 -7 26 -18 53 -24 27 -7 53 -20 57 -29 9 -15 28 -12 28
4 0 9 -110 61 -129 61 -7 0 -11 -5 -9 -12z"/>
<path d="M8870 3117 c0 -7 5 -18 12 -25 7 -7 9 -12 5 -12 -11 0 42 -100 69
-133 13 -16 24 -33 24 -37 0 -9 44 -74 126 -185 24 -33 61 -84 81 -114 21 -30
62 -73 92 -95 85 -64 108 -91 159 -194 26 -52 62 -109 81 -126 18 -17 55 -52
81 -79 l48 -47 66 89 c36 48 66 93 66 98 0 24 -197 275 -231 293 -10 6 -19 15
-19 20 0 5 -23 35 -52 67 -57 64 -311 317 -349 348 -29 24 -103 60 -140 69
-15 3 -41 22 -58 41 -31 35 -61 46 -61 22z"/>
<path d="M7470 3080 c-6 -11 -17 -20 -25 -20 -19 0 -83 -77 -109 -130 -11 -25
-33 -61 -47 -80 -14 -19 -38 -66 -54 -105 -15 -38 -31 -74 -35 -80 -4 -5 -10
-22 -14 -37 -3 -16 -11 -28 -17 -28 -6 0 -7 -4 -4 -10 3 -5 2 -10 -3 -10 -10
0 -42 -92 -42 -124 0 -11 -7 -30 -15 -40 -8 -11 -15 -28 -15 -38 0 -10 -4 -18
-10 -18 -5 0 -10 -8 -10 -19 0 -10 -13 -58 -28 -107 -16 -49 -29 -99 -30 -112
0 -12 -8 -36 -16 -53 -8 -16 -12 -37 -9 -45 3 -7 0 -14 -5 -14 -6 0 -14 -17
-18 -37 -4 -21 -12 -45 -19 -53 -8 -8 -15 -44 -18 -80 -2 -36 -12 -87 -21
-115 -29 -82 -35 -105 -26 -105 4 0 7 -18 6 -40 0 -27 -5 -40 -14 -40 -10 0
-12 -7 -8 -24 3 -14 1 -28 -4 -31 -6 -4 -8 -15 -5 -25 3 -10 2 -21 -4 -24 -5
-3 -9 -23 -8 -43 1 -20 -4 -38 -9 -40 -6 -2 -9 -16 -7 -31 3 -15 -3 -53 -11
-86 -9 -32 -13 -63 -10 -68 3 -5 -3 -19 -14 -31 -10 -12 -22 -33 -26 -47 -7
-27 -72 -74 -119 -85 -15 -4 -30 -11 -33 -16 -3 -5 -12 -9 -20 -9 -14 0 -70
-25 -124 -55 -25 -15 -125 -15 -147 -2 -7 4 -14 3 -17 -2 -3 -5 -14 -7 -24 -4
-11 2 -32 -6 -49 -21 -35 -30 -70 -105 -54 -116 6 -3 12 -19 13 -36 1 -16 7
-32 12 -36 7 -5 7 -11 -2 -20 -18 -18 -15 -28 9 -28 11 0 17 -5 14 -10 -4 -6
-11 -8 -16 -5 -5 4 -9 2 -9 -4 0 -5 -6 -11 -12 -14 -7 -2 -5 -3 5 -2 25 4 21
-20 -5 -33 l-23 -11 22 0 c12 -1 23 5 26 12 3 9 7 9 20 -2 23 -19 21 -30 -4
-24 -17 5 -20 2 -17 -13 3 -15 17 -21 78 -29 61 -8 76 -14 78 -29 3 -16 0 -18
-30 -12 -40 8 -76 8 -89 0 -5 -3 -9 -18 -9 -34 0 -20 -6 -31 -20 -35 -12 -4
-20 -14 -19 -23 1 -9 -3 -30 -9 -45 -15 -36 -15 -37 4 -37 15 0 15 -2 2 -22
-22 -32 -38 -34 -38 -3 0 17 -5 25 -12 22 -7 -2 -13 -11 -13 -20 0 -27 -12
-29 -19 -2 -4 14 -2 34 4 45 16 30 12 60 -7 60 -14 0 -13 3 5 16 30 20 31 74
2 74 -11 0 -20 4 -20 10 0 5 -6 7 -14 4 -7 -3 -16 2 -19 10 -4 9 -11 16 -16
16 -16 0 -23 -38 -11 -61 9 -15 9 -24 1 -32 -6 -6 -11 -24 -11 -39 0 -21 -5
-28 -20 -28 -11 0 -20 -4 -20 -10 0 -5 11 -10 25 -10 17 0 29 7 35 23 l9 22 0
-22 c1 -12 4 -28 7 -37 4 -11 -2 -17 -21 -22 -21 -5 -25 -12 -23 -32 4 -33 28
-42 29 -10 0 12 3 17 6 10 3 -7 2 -24 -1 -38 -5 -20 -10 -23 -20 -15 -15 13
-26 5 -26 -19 0 -10 -7 -23 -15 -30 -9 -8 -13 -21 -10 -34 4 -12 3 -16 -2 -10
-13 17 -74 -3 -67 -21 4 -8 2 -15 -4 -15 -5 0 -12 -9 -15 -20 -3 -12 -14 -20
-27 -20 -11 0 -18 -5 -15 -10 3 -6 32 -10 63 -10 36 0 52 4 43 9 -10 6 -10 10
-1 16 6 4 17 2 23 -4 12 -12 80 -15 91 -4 4 4 22 9 39 10 18 1 48 4 67 7 19 2
41 5 49 5 11 1 11 4 0 17 -11 14 -10 18 5 30 11 7 23 11 27 8 13 -8 11 -32 -3
-37 -7 -2 -11 -7 -8 -10 8 -9 257 39 459 88 226 56 470 135 701 227 185 75
513 228 523 245 8 13 10 409 3 442 -13 60 -39 37 -62 -53 -4 -17 -10 -24 -16
-18 -5 5 3 83 22 198 52 322 62 409 75 639 3 55 10 145 15 200 34 354 43 479
41 554 -3 70 14 158 35 181 17 20 28 91 20 125 -5 20 -13 25 -37 25 -31 0 -31
0 -15 25 22 34 6 32 -28 -4 -18 -19 -24 -31 -17 -36 8 -4 3 -17 -14 -37 -14
-16 -28 -42 -31 -56 -6 -29 -8 -34 -54 -137 -17 -38 -35 -90 -40 -115 -5 -25
-20 -73 -34 -107 -14 -36 -22 -72 -19 -84 5 -18 3 -21 -10 -16 -12 5 -17 1
-17 -13 0 -10 -5 -22 -11 -25 -6 -4 -7 -14 -3 -24 9 -22 6 -61 -6 -76 -10 -12
-14 -61 -24 -245 -5 -113 -19 -220 -27 -226 -5 -3 -6 -17 -3 -31 4 -14 2 -28
-4 -32 -5 -3 -13 -42 -16 -86 -4 -44 -11 -82 -17 -85 -5 -4 -9 -22 -9 -41 0
-46 -9 -158 -15 -186 -3 -13 -10 -23 -16 -23 -12 0 -7 153 10 305 6 50 20 180
31 290 12 110 23 207 25 215 2 8 7 106 10 217 l7 202 -38 10 c-27 7 -41 7 -51
-1 -25 -21 -150 -285 -139 -295 2 -2 13 15 25 39 27 54 58 95 66 86 4 -3 0
-21 -9 -40 -21 -45 -44 -112 -63 -178 -8 -30 -19 -59 -23 -65 -5 -5 -13 -48
-20 -95 -6 -47 -15 -94 -20 -105 -9 -20 -38 -245 -47 -360 -2 -33 -8 -69 -13
-80 -14 -32 -21 -133 -10 -140 5 -3 10 -11 10 -16 0 -6 -4 -7 -10 -4 -13 8
-13 -21 0 -45 7 -13 6 -19 -4 -23 -24 -9 -45 -179 -25 -203 9 -11 8 -15 -5
-20 -9 -3 -16 -13 -16 -21 0 -10 -7 -13 -22 -9 -13 3 -17 3 -10 0 6 -3 12 -15
12 -26 0 -11 11 -31 25 -44 26 -24 33 -44 15 -44 -6 0 -13 7 -16 15 -4 8 -12
15 -20 15 -12 0 -12 -4 -2 -20 7 -11 18 -20 25 -20 7 0 14 -6 15 -12 4 -37 4
-44 -3 -53 -14 -21 -21 -88 -9 -95 9 -5 7 -16 -5 -41 -10 -19 -14 -31 -10 -27
4 4 14 1 21 -7 10 -10 12 -20 4 -39 -7 -20 -6 -26 4 -26 21 0 35 -23 29 -50
-4 -24 -7 -25 -100 -28 l-95 -3 6 48 c3 26 10 139 15 251 6 112 13 208 17 214
4 6 3 8 -4 4 -7 -4 -13 10 -17 38 -9 57 -3 81 18 80 10 -1 19 7 21 20 7 32 15
133 9 114 -2 -10 -9 -18 -14 -18 -5 0 -14 -10 -19 -22 -7 -19 -9 -20 -9 -5 -1
10 -8 25 -16 33 -18 18 -18 32 -1 104 10 42 17 55 32 56 10 1 28 2 39 3 19 2
19 2 2 12 -10 6 -28 9 -38 6 -32 -9 -47 36 -26 73 9 15 17 39 17 52 0 13 7 34
16 47 14 19 14 27 4 47 -11 19 -10 32 4 76 16 51 25 107 46 273 5 44 17 112
25 150 15 73 66 365 91 520 24 155 62 288 110 389 24 51 32 106 14 106 -5 0
-14 -9 -20 -20z m134 -1877 c-9 -65 -14 -67 -14 -5 0 30 4 52 11 52 7 0 8 -16
3 -47z m-264 -631 c0 -15 -2 -15 -10 -2 -13 20 -13 33 0 25 6 -3 10 -14 10
-23z m-1263 -144 c-11 -31 -12 -31 -15 -9 -3 19 10 40 25 41 1 0 -3 -15 -10
-32z m43 28 c0 -3 -4 -8 -10 -11 -5 -3 -10 -1 -10 4 0 6 5 11 10 11 6 0 10 -2
10 -4z m160 -66 c0 -5 -6 -10 -14 -10 -8 0 -18 5 -21 10 -3 6 3 10 14 10 12 0
21 -4 21 -10z m-30 -70 c0 -5 -4 -10 -10 -10 -5 0 -10 5 -10 10 0 6 5 10 10
10 6 0 10 -4 10 -10z m-153 -32 c-3 -8 -6 -5 -6 6 -1 11 2 17 5 13 3 -3 4 -12
1 -19z m160 -10 c-3 -8 -6 -5 -6 6 -1 11 2 17 5 13 3 -3 4 -12 1 -19z m-12
-18 c3 -5 1 -10 -4 -10 -6 0 -11 5 -11 10 0 6 2 10 4 10 3 0 8 -4 11 -10z
m-34 -53 c-8 -8 -11 -5 -11 9 0 27 14 41 18 19 2 -9 -1 -22 -7 -28z m-1 -97
c0 -5 -2 -10 -4 -10 -3 0 -8 5 -11 10 -3 6 -1 10 4 10 6 0 11 -4 11 -10z
m-224 -27 c-10 -10 -19 5 -10 18 6 11 8 11 12 0 2 -7 1 -15 -2 -18z"/>
<path d="M9120 3094 c0 -9 45 -59 180 -204 64 -69 132 -142 150 -163 18 -21
35 -36 37 -33 7 7 -67 118 -93 139 -18 14 -22 25 -18 43 5 20 -4 34 -55 83
-33 32 -76 66 -95 75 -20 9 -38 21 -41 26 -8 13 -65 43 -65 34z"/>
<path d="M8072 3027 c-24 -25 -28 -37 -12 -37 11 0 45 48 38 55 -2 3 -14 -5
-26 -18z"/>
<path d="M8180 2770 c19 -13 30 -13 30 0 0 6 -10 10 -22 10 -19 0 -20 -2 -8
-10z"/>
<path d="M7786 2743 c-6 -14 -5 -15 5 -6 7 7 10 15 7 18 -3 3 -9 -2 -12 -12z"/>
<path d="M8179 2728 c-4 -44 -9 -78 -15 -111 -4 -23 -2 -43 5 -51 9 -11 6 -18
-14 -34 -21 -16 -26 -29 -26 -69 -1 -27 1 -59 5 -70 5 -15 2 -25 -11 -31 -15
-9 -15 -15 -6 -47 10 -31 9 -42 -3 -60 -10 -15 -11 -24 -4 -27 12 -4 -6 -68
-19 -68 -3 0 -6 -21 -6 -47 1 -27 -3 -54 -8 -60 -5 -7 -7 -22 -4 -33 3 -11 1
-37 -5 -57 -7 -26 -6 -42 2 -59 8 -13 9 -30 5 -41 -15 -35 -18 -49 -17 -108 0
-43 -4 -65 -16 -78 -11 -13 -17 -36 -17 -70 0 -31 -5 -56 -13 -62 -7 -6 -12
-19 -12 -30 1 -11 1 -37 1 -58 0 -25 4 -37 12 -34 7 2 12 15 12 28 0 14 7 25
16 27 21 4 32 -47 15 -68 -7 -8 -12 -29 -11 -46 2 -18 -5 -44 -15 -59 -15 -24
-16 -30 -4 -54 11 -22 12 -35 3 -60 -6 -18 -9 -52 -6 -77 2 -24 1 -47 -4 -50
-5 -3 -9 -32 -9 -64 0 -32 -4 -61 -9 -64 -5 -3 -7 -15 -4 -25 3 -10 0 -22 -6
-25 -6 -4 -8 -18 -5 -32 3 -13 2 -30 -4 -37 -12 -14 -15 -157 -3 -157 12 0
345 201 356 215 7 8 10 59 8 129 -1 70 2 118 8 122 7 4 6 10 -1 19 -13 16 -24
155 -12 155 5 0 13 29 18 65 8 50 7 65 -2 65 -7 0 -15 -6 -18 -12 -4 -7 -4 3
-2 23 2 20 0 41 -5 46 -6 6 -16 31 -24 57 -13 41 -12 48 1 53 11 4 12 8 2 20
-9 11 -9 16 1 22 10 7 10 13 2 29 -6 12 -9 46 -7 76 2 38 0 56 -8 56 -8 0 -8
3 0 8 19 13 23 39 9 65 -7 14 -9 30 -5 38 5 7 5 20 0 28 -9 19 -22 97 -26 161
-1 25 -5 88 -9 140 -4 52 -7 102 -7 110 3 105 9 187 15 197 4 6 1 15 -6 20
-18 11 -28 51 -14 56 6 2 -3 19 -21 38 -17 19 -32 44 -32 57 0 23 -19 32 -21
10z m-99 -1208 c0 -5 -5 -10 -11 -10 -5 0 -7 5 -4 10 3 6 8 10 11 10 2 0 4 -4
4 -10z"/>
<path d="M7739 2692 c-68 -76 -75 -85 -54 -74 32 18 61 46 74 71 18 33 8 35
-20 3z"/>
<path d="M9500 2711 c0 -7 7 -19 15 -27 19 -20 19 -5 0 20 -9 11 -15 14 -15 7z"/>
<path d="M8838 2583 c7 -3 16 -2 19 1 4 3 -2 6 -13 5 -11 0 -14 -3 -6 -6z"/>
<path d="M5883 2453 c3 -13 1 -23 -4 -23 -9 0 -14 -10 -39 -75 -13 -33 -20
-55 -16 -55 14 0 46 44 64 89 21 51 21 56 6 70 -15 15 -16 14 -11 -6z"/>
<path d="M4004 2391 c4 -5 1 -11 -4 -13 -9 -3 -16 -19 -19 -49 -1 -4 -8 -6
-17 -5 -11 1 -21 -14 -32 -46 -8 -27 -21 -48 -28 -48 -10 0 -14 -15 -14 -51 0
-31 4 -48 10 -44 6 4 10 -7 10 -26 l0 -33 25 34 c14 19 25 38 25 43 0 5 9 20
20 34 11 14 20 40 20 59 0 18 4 34 10 36 5 2 12 29 16 61 6 50 5 57 -10 57
-10 0 -15 -4 -12 -9z"/>
<path d="M8713 2358 c-19 -23 -20 -78 -2 -78 6 0 9 9 6 20 -3 11 -1 17 4 14
14 -8 22 22 12 41 -8 13 -12 14 -20 3z"/>
<path d="M8681 2264 c0 -11 3 -14 6 -6 3 7 2 16 -1 19 -3 4 -6 -2 -5 -13z"/>
<path d="M5811 2234 c0 -11 3 -14 6 -6 3 7 2 16 -1 19 -3 4 -6 -2 -5 -13z"/>
<path d="M8655 2220 c-3 -5 -1 -10 4 -10 6 0 11 5 11 10 0 6 -2 10 -4 10 -3 0
-8 -4 -11 -10z"/>
<path d="M4231 2194 c0 -11 3 -14 6 -6 3 7 2 16 -1 19 -3 4 -6 -2 -5 -13z"/>
<path d="M5780 2201 c0 -5 7 -12 16 -15 10 -4 13 -13 9 -26 -7 -21 9 -28 20
-9 13 19 -4 59 -25 59 -11 0 -20 -4 -20 -9z"/>
<path d="M5556 2185 c-3 -9 -6 -24 -6 -33 0 -13 4 -11 16 7 11 15 13 26 6 33
-6 6 -12 4 -16 -7z"/>
<path d="M4201 2114 c0 -11 3 -14 6 -6 3 7 2 16 -1 19 -3 4 -6 -2 -5 -13z"/>
<path d="M5785 2111 c-3 -5 -1 -12 5 -16 5 -3 10 1 10 9 0 18 -6 21 -15 7z"/>
<path d="M4870 2069 c0 -17 -4 -28 -10 -24 -10 6 -14 -13 -10 -50 3 -29 10
-32 26 -11 16 22 19 116 4 116 -5 0 -10 -14 -10 -31z"/>
<path d="M4251 2074 c0 -11 3 -14 6 -6 3 7 2 16 -1 19 -3 4 -6 -2 -5 -13z"/>
<path d="M4224 2039 c-3 -6 -2 -15 4 -21 6 -6 11 -2 15 11 5 22 -7 29 -19 10z"/>
<path d="M5711 2034 c0 -11 3 -14 6 -6 3 7 2 16 -1 19 -3 4 -6 -2 -5 -13z"/>
<path d="M5587 2024 c-4 -4 -7 -18 -7 -30 0 -13 -4 -26 -10 -29 -5 -3 -10 -15
-10 -27 0 -17 2 -18 15 -8 8 7 15 19 15 26 0 8 6 23 12 34 13 20 0 48 -15 34z"/>
<path d="M4203 1972 c-7 -4 -12 -16 -12 -27 1 -11 -3 -31 -7 -44 -12 -39 13
-16 26 24 13 40 11 58 -7 47z"/>
<path d="M4820 1930 c0 -19 3 -21 12 -12 9 9 9 15 0 24 -9 9 -12 7 -12 -12z"/>
<path d="M5708 1925 c-3 -14 -2 -25 2 -25 11 0 20 39 10 45 -4 3 -10 -6 -12
-20z"/>
<path d="M5406 1913 c-16 -85 -17 -113 -6 -113 7 0 10 6 7 14 -3 7 1 26 9 41
16 31 19 85 5 85 -5 0 -12 -12 -15 -27z"/>
<path d="M9117 1933 c-4 -6 -4 -18 -1 -27 4 -9 1 -16 -6 -16 -7 0 -10 -8 -7
-20 3 -11 0 -20 -6 -20 -7 -1 0 -7 14 -15 26 -14 69 -10 69 6 0 5 6 9 14 9 16
0 49 -47 41 -59 -2 -5 1 -11 9 -14 10 -4 12 0 9 14 -7 24 14 25 21 2 3 -10 7
-38 10 -62 3 -24 8 -46 11 -49 9 -10 86 72 80 86 -2 7 5 16 17 21 13 5 17 10
10 15 -6 3 -13 2 -17 -4 -7 -11 -45 9 -45 25 0 5 -7 18 -15 29 -13 17 -15 17
-40 -10 -26 -28 -27 -28 -41 -10 -8 11 -12 32 -9 47 3 15 1 31 -5 34 -6 4 -10
-8 -10 -28 0 -31 -2 -35 -22 -29 -29 7 -55 31 -66 61 -5 15 -11 20 -15 14z
m236 -158 c4 -8 2 -17 -3 -20 -6 -4 -10 3 -10 14 0 25 6 27 13 6z"/>
<path d="M4868 1923 c7 -3 16 -2 19 1 4 3 -2 6 -13 5 -11 0 -14 -3 -6 -6z"/>
<path d="M5370 1913 c-1 -10 -7 -34 -14 -54 -13 -36 -11 -59 5 -59 5 0 9 18 9
40 0 22 5 40 10 40 6 0 10 11 10 25 0 28 -20 35 -20 8z"/>
<path d="M4103 1852 c-11 -32 -31 -113 -42 -182 -12 -69 -28 -147 -36 -175
-36 -128 -85 -341 -92 -397 -5 -44 -4 -48 16 -48 14 0 21 -6 21 -20 0 -11 -4
-20 -10 -20 -5 0 -10 7 -10 15 0 25 -27 17 -38 -12 -21 -57 -22 -62 -7 -57 20
8 64 -42 58 -66 -7 -26 -17 -25 -37 3 -17 22 -17 22 -11 0 4 -14 0 -25 -12
-32 -17 -10 -16 -10 3 -11 22 0 34 -17 34 -50 0 -29 -44 -52 -111 -59 -12 -2
-4 -105 10 -129 11 -20 9 -28 -9 -55 l-21 -32 6 35 c5 23 4 31 -3 25 -18 -19
-33 -80 -42 -175 -6 -52 -12 -107 -16 -121 -5 -23 -2 -28 27 -38 18 -6 34 -9
37 -7 9 9 30 132 37 211 11 143 23 191 65 257 56 89 58 95 59 193 0 50 7 109
16 134 8 25 21 84 30 131 30 167 37 197 75 310 21 63 43 157 50 208 11 87 11
94 -7 107 -15 12 -19 11 -25 -3 -11 -27 -9 15 3 67 14 61 8 59 -18 -7z m-13
-361 c0 -4 -9 -16 -19 -25 -10 -10 -22 -32 -25 -51 -8 -41 -38 -103 -43 -88
-4 12 24 129 37 153 9 16 50 25 50 11z m-90 -251 c0 -5 -4 -10 -10 -10 -5 0
-10 5 -10 10 0 6 5 10 10 10 6 0 10 -4 10 -10z m-29 -91 l-9 -34 -1 31 c-1 17
2 34 6 37 12 13 14 -1 4 -34z"/>
<path d="M5480 1890 c0 -11 5 -20 10 -20 6 0 10 9 10 20 0 11 -4 20 -10 20 -5
0 -10 -9 -10 -20z"/>
<path d="M5550 1896 c0 -9 7 -16 16 -16 9 0 14 5 12 12 -6 18 -28 21 -28 4z"/>
<path d="M4951 1868 c-18 -19 -21 -19 -27 -4 -5 13 -9 14 -20 5 -23 -19 -16
-44 15 -56 31 -11 40 -2 56 55 8 28 1 28 -24 0z"/>
<path d="M5710 1882 c0 -6 -7 -9 -15 -6 -10 4 -15 0 -15 -15 0 -28 26 -27 33
1 4 12 4 24 2 27 -3 2 -5 -1 -5 -7z"/>
<path d="M5233 1845 c-39 -38 -25 -49 16 -14 14 11 20 23 15 28 -5 4 -19 -2
-31 -14z"/>
<path d="M5578 1853 c-9 -10 -21 -36 -28 -58 -16 -50 -35 -73 -26 -30 l6 30
-20 -24 c-25 -29 -25 -37 -2 -45 9 -3 23 -9 31 -12 10 -5 12 -2 9 8 -4 8 -2
21 3 29 7 11 9 10 9 -4 0 -28 25 -14 25 14 0 13 4 41 9 62 10 45 5 54 -16 30z"/>
<path d="M5455 1850 c-4 -6 -3 -16 3 -22 6 -6 12 -6 17 2 4 6 3 16 -3 22 -6 6
-12 6 -17 -2z"/>
<path d="M9370 1839 c0 -11 4 -18 10 -14 5 3 7 12 3 20 -7 21 -13 19 -13 -6z"/>
<path d="M4985 1839 c-10 -15 3 -25 16 -12 7 7 7 13 1 17 -6 3 -14 1 -17 -5z"/>
<path d="M5495 1831 c-3 -5 -1 -12 5 -16 5 -3 10 1 10 9 0 18 -6 21 -15 7z"/>
<path d="M4161 1814 c0 -11 3 -14 6 -6 3 7 2 16 -1 19 -3 4 -6 -2 -5 -13z"/>
<path d="M5607 1783 c-5 -42 9 -70 16 -32 8 38 6 69 -3 69 -4 0 -10 -17 -13
-37z"/>
<path d="M5671 1794 c0 -11 3 -14 6 -6 3 7 2 16 -1 19 -3 4 -6 -2 -5 -13z"/>
<path d="M9100 1796 c0 -9 5 -16 10 -16 6 0 10 4 10 9 0 6 -4 13 -10 16 -5 3
-10 -1 -10 -9z"/>
<path d="M5328 1766 c-2 -20 -1 -36 3 -36 12 0 21 52 11 62 -6 6 -11 -4 -14
-26z"/>
<path d="M5430 1776 c-13 -36 -14 -33 19 -38 17 -2 28 -1 25 4 -3 4 -11 20
-19 35 l-14 27 -11 -28z"/>
<path d="M2710 1763 c0 -22 2 -25 10 -13 13 20 13 40 0 40 -5 0 -10 -12 -10
-27z"/>
<path d="M5306 1771 c-4 -7 -5 -15 -2 -18 9 -9 19 4 14 18 -4 11 -6 11 -12 0z"/>
<path d="M4570 1757 c0 -8 7 -18 16 -21 11 -4 14 -1 12 11 -4 21 -28 30 -28
10z"/>
<path d="M5362 1745 c-7 -16 -8 -26 -1 -30 5 -4 -1 -15 -13 -25 -23 -20 -21
-22 21 -24 18 -1 27 -8 31 -26 l6 -25 7 25 c7 24 8 24 22 6 16 -21 18 -15 9
21 -4 13 -10 20 -15 18 -4 -3 -18 4 -29 15 -14 14 -18 28 -14 45 8 32 -9 32
-24 0z"/>
<path d="M8320 1746 c0 -9 5 -16 10 -16 6 0 10 4 10 9 0 6 -4 13 -10 16 -5 3
-10 -1 -10 -9z"/>
<path d="M5641 1734 c0 -11 3 -14 6 -6 3 7 2 16 -1 19 -3 4 -6 -2 -5 -13z"/>
<path d="M4750 1731 c0 -5 -3 -18 -6 -28 -6 -16 -5 -16 9 2 19 23 21 35 7 35
-5 0 -10 -4 -10 -9z"/>
<path d="M2701 1714 c0 -11 3 -14 6 -6 3 7 2 16 -1 19 -3 4 -6 -2 -5 -13z"/>
<path d="M4615 1719 c-4 -5 -14 -8 -23 -4 -8 3 -19 0 -24 -7 -15 -24 -8 -45
17 -56 34 -16 35 -15 35 9 0 11 5 29 10 39 11 20 -4 38 -15 19z"/>
<path d="M5581 1716 c-11 -13 -11 -20 -3 -28 15 -15 24 -5 20 23 -3 21 -4 21
-17 5z"/>
<path d="M5126 1701 c-4 -7 -5 -15 -2 -18 9 -9 19 4 14 18 -4 11 -6 11 -12 0z"/>
<path d="M3870 1685 c0 -8 -6 -14 -12 -12 -8 1 -13 -8 -13 -23 0 -14 -4 -31
-8 -37 -5 -7 -6 -17 -3 -22 4 -5 0 -12 -6 -14 -10 -4 -10 -6 0 -6 6 -1 12 -8
12 -16 0 -18 -16 -20 -23 -2 -3 6 -6 2 -6 -10 -1 -13 3 -23 8 -23 5 0 16 -3
24 -6 11 -4 17 10 26 63 20 117 21 123 11 123 -6 0 -10 -7 -10 -15z"/>
<path d="M5503 1658 c-9 -35 -1 -54 10 -25 4 10 6 10 6 0 1 -7 5 -13 11 -13 5
0 9 10 7 23 -1 13 3 21 11 20 6 -2 12 5 12 15 0 11 -8 17 -24 17 -18 0 -25 -8
-33 -37z"/>
<path d="M5219 1668 c-7 -13 -17 -26 -22 -30 -17 -11 11 -37 33 -31 15 4 20 0
20 -16 0 -11 4 -21 8 -21 14 0 7 46 -10 63 -9 10 -14 25 -11 37 7 27 -3 25
-18 -2z"/>
<path d="M4736 1629 c-9 -45 -8 -59 5 -59 5 0 8 4 5 9 -3 4 -1 22 4 39 4 18 5
34 0 37 -4 2 -10 -9 -14 -26z"/>
<path d="M4815 1652 c-15 -15 -2 -32 25 -32 37 0 41 26 5 32 -13 3 -27 3 -30
0z"/>
<path d="M5106 1653 c-11 -11 -6 -23 9 -23 8 0 15 4 15 9 0 13 -16 22 -24 14z"/>
<path d="M5370 1635 c0 -14 -4 -17 -32 -19 -7 -1 -16 -5 -20 -11 -5 -6 -8 -5
-8 3 0 6 -4 12 -10 12 -9 0 -3 -88 7 -100 7 -8 23 24 23 50 1 24 1 24 15 6 15
-19 15 -19 15 2 0 12 5 22 10 22 6 0 10 -13 10 -29 0 -24 3 -28 20 -24 14 4
17 10 11 22 -5 9 -6 22 -4 29 3 6 -2 12 -10 12 -10 0 -13 7 -10 20 3 11 0 20
-6 20 -6 0 -11 -7 -11 -15z"/>
<path d="M9102 1630 c0 -14 2 -19 5 -12 2 6 2 18 0 25 -3 6 -5 1 -5 -13z"/>
<path d="M9150 1618 c0 -26 -3 -30 -21 -25 -18 5 -20 2 -14 -20 3 -15 1 -31
-7 -41 -10 -12 -10 -16 0 -19 6 -3 9 -10 6 -16 -4 -7 12 6 34 27 23 22 39 43
36 48 -3 5 0 7 7 6 16 -4 31 50 16 59 -6 4 -21 8 -34 9 -19 2 -23 -2 -23 -28z"/>
<path d="M5556 1624 c-3 -9 -6 -24 -6 -35 0 -10 -4 -19 -10 -19 -5 0 -10 -4
-10 -10 0 -5 5 -10 11 -10 10 0 39 59 39 80 0 16 -17 12 -24 -6z"/>
<path d="M8880 1629 c0 -5 5 -7 10 -4 6 3 10 8 10 11 0 2 -4 4 -10 4 -5 0 -10
-5 -10 -11z"/>
<path d="M4640 1598 c1 -31 1 -32 15 -14 19 25 19 46 0 46 -10 0 -15 -10 -15
-32z"/>
<path d="M4605 1608 c-4 -10 -11 -16 -15 -13 -5 3 -11 1 -14 -4 -3 -5 3 -11
15 -14 21 -6 35 12 26 35 -3 9 -7 8 -12 -4z"/>
<path d="M4685 1608 c-11 -38 -11 -78 2 -78 9 0 13 14 13 45 0 44 -6 58 -15
33z"/>
<path d="M5436 1605 c-3 -8 -1 -15 4 -15 6 0 10 7 10 15 0 8 -2 15 -4 15 -2 0
-6 -7 -10 -15z"/>
<path d="M5497 1586 c-3 -8 0 -17 8 -20 14 -5 28 17 18 28 -10 10 -21 7 -26
-8z"/>
<path d="M4790 1556 c0 -9 5 -16 10 -16 6 0 10 4 10 9 0 6 -4 13 -10 16 -5 3
-10 -1 -10 -9z"/>
<path d="M4710 1535 c0 -14 4 -25 9 -25 12 0 19 21 13 38 -8 21 -22 13 -22
-13z"/>
<path d="M7220 1550 c0 -5 10 -10 23 -10 18 0 19 2 7 10 -19 13 -30 13 -30 0z"/>
<path d="M8846 1552 c-3 -5 3 -21 13 -36 13 -19 21 -24 26 -16 4 7 2 16 -5 20
-7 4 -10 15 -7 24 7 17 -17 23 -27 8z"/>
<path d="M4600 1535 c0 -8 2 -15 4 -15 2 0 6 7 10 15 3 8 1 15 -4 15 -6 0 -10
-7 -10 -15z"/>
<path d="M5210 1524 c0 -8 5 -12 10 -9 6 4 8 11 5 16 -9 14 -15 11 -15 -7z"/>
<path d="M5478 1533 c7 -3 16 -2 19 1 4 3 -2 6 -13 5 -11 0 -14 -3 -6 -6z"/>
<path d="M8756 1514 c-4 -10 0 -24 9 -33 15 -15 16 -13 9 14 -9 38 -10 40 -18
19z"/>
<path d="M3807 1494 c-4 -4 -4 -18 -1 -30 4 -15 2 -24 -5 -24 -6 0 -11 10 -11
21 0 17 -3 19 -14 10 -23 -19 -27 -51 -6 -51 10 0 20 -7 24 -15 3 -8 1 -15 -4
-15 -6 0 -10 -7 -10 -15 0 -8 -9 -15 -19 -15 -36 0 -60 -32 -63 -82 -2 -38 -7
-48 -20 -48 -19 0 -25 -25 -8 -35 5 -3 0 -15 -11 -26 -16 -16 -18 -23 -7 -42
10 -19 13 -20 16 -4 2 9 7 17 12 17 17 0 19 -17 6 -36 -14 -18 -15 -18 -35 0
-21 19 -21 19 -21 -11 0 -23 -4 -30 -17 -29 -18 1 -32 -44 -34 -111 -1 -21 -6
-33 -15 -33 -9 0 -14 -11 -14 -34 0 -18 -7 -39 -15 -46 -12 -10 -13 -16 -3
-27 10 -12 9 -18 -7 -30 -11 -7 -20 -23 -20 -35 0 -12 -6 -23 -12 -25 -8 -3
-13 4 -13 17 0 12 -4 18 -10 15 -6 -4 -8 -11 -5 -16 4 -5 1 -9 -4 -9 -6 0 -11
-15 -11 -34 0 -19 -6 -37 -12 -39 -7 -3 -2 -6 11 -6 l23 -1 -23 -24 c-13 -13
-29 -22 -36 -19 -7 3 -13 0 -13 -5 0 -6 9 -14 20 -17 11 -3 20 -14 20 -23 0
-11 -3 -13 -8 -6 -11 18 -42 13 -42 -7 0 -10 -7 -24 -15 -33 -18 -18 -20 -30
-2 -23 8 3 12 -6 13 -24 1 -32 -6 -35 -36 -17 -10 7 -22 9 -25 6 -11 -11 16
-50 30 -44 8 3 15 0 17 -6 2 -6 42 -26 89 -43 89 -34 119 -33 119 5 0 10 5 22
11 26 7 4 9 23 5 50 -3 24 -2 44 3 44 12 0 32 93 22 100 -13 9 -10 50 3 50 17
0 43 70 51 140 4 30 22 100 41 156 18 55 36 120 39 145 4 24 10 53 15 64 9 21
19 64 45 185 9 41 20 91 25 111 6 20 10 41 10 48 0 12 -32 15 -43 5z m-182
-735 c8 -12 -2 -59 -13 -59 -4 0 -7 16 -7 35 0 35 8 44 20 24z m12 -71 c-3 -8
-6 -5 -6 6 -1 11 2 17 5 13 3 -3 4 -12 1 -19z m-139 -13 c9 -20 9 -25 -2 -25
-13 0 -26 20 -26 41 0 18 17 8 28 -16z m8 -102 c-10 -10 -19 5 -10 18 6 11 8
11 12 0 2 -7 1 -15 -2 -18z m-86 -83 c0 -5 -5 -10 -11 -10 -5 0 -7 5 -4 10 3
6 8 10 11 10 2 0 4 -4 4 -10z"/>
<path d="M4470 1478 c0 -19 2 -20 10 -8 13 19 13 30 0 30 -5 0 -10 -10 -10
-22z"/>
<path d="M4660 1463 c0 -43 5 -41 13 5 4 18 2 32 -3 32 -6 0 -10 -16 -10 -37z"/>
<path d="M5130 1484 c0 -8 5 -12 10 -9 6 4 8 11 5 16 -9 14 -15 11 -15 -7z"/>
<path d="M5171 1487 c-8 -11 -6 -18 9 -32 20 -18 20 -17 20 13 0 34 -10 41
-29 19z"/>
<path d="M8790 1486 c0 -9 5 -16 10 -16 6 0 10 4 10 9 0 6 -4 13 -10 16 -5 3
-10 -1 -10 -9z"/>
<path d="M8831 1484 c0 -11 3 -14 6 -6 3 7 2 16 -1 19 -3 4 -6 -2 -5 -13z"/>
<path d="M8716 1481 c-5 -8 -2 -20 8 -29 17 -17 19 -9 7 22 -6 15 -10 16 -15
7z"/>
<path d="M4682 1435 c-7 -14 -12 -33 -12 -43 0 -14 2 -14 14 -2 18 18 32 70
19 70 -6 0 -15 -11 -21 -25z"/>
<path d="M5068 1408 c-23 -46 -30 -70 -18 -63 6 3 10 15 10 25 0 13 5 17 15
14 11 -5 15 1 15 25 0 17 -1 31 -3 31 -1 0 -10 -15 -19 -32z"/>
<path d="M5146 1432 c-10 -9 -7 -62 3 -62 10 0 26 19 34 42 6 16 -25 33 -37
20z"/>
<path d="M8725 1409 c-10 -15 3 -25 16 -12 7 7 7 13 1 17 -6 3 -14 1 -17 -5z"/>
<path d="M4635 1401 c-6 -11 9 -23 19 -14 9 9 7 23 -3 23 -6 0 -12 -4 -16 -9z"/>
<path d="M4750 1390 c0 -5 5 -10 11 -10 5 0 7 5 4 10 -3 6 -8 10 -11 10 -2 0
-4 -4 -4 -10z"/>
<path d="M7986 1377 c-3 -14 -9 -33 -12 -44 -3 -10 4 -3 16 16 13 21 18 37 12
43 -6 6 -12 0 -16 -15z"/>
<path d="M4555 1360 c-3 -5 1 -10 10 -10 9 0 13 5 10 10 -3 6 -8 10 -10 10 -2
0 -7 -4 -10 -10z"/>
<path d="M4670 1352 c1 -14 27 -41 33 -35 13 13 7 31 -13 36 -11 3 -20 2 -20
-1z"/>
<path d="M4221 1313 c-18 -48 -41 -147 -35 -152 4 -5 8 4 34 103 22 84 22 109
1 49z"/>
<path d="M4500 1330 c0 -5 7 -10 15 -10 8 0 15 5 15 10 0 6 -7 10 -15 10 -8 0
-15 -4 -15 -10z"/>
<path d="M4620 1336 c0 -17 21 -56 30 -56 19 0 7 55 -12 58 -10 2 -18 1 -18
-2z"/>
<path d="M4550 1310 c0 -5 5 -10 11 -10 5 0 7 5 4 10 -3 6 -8 10 -11 10 -2 0
-4 -4 -4 -10z"/>
<path d="M4588 1294 c-5 -4 -8 -21 -8 -38 1 -26 2 -28 11 -13 11 19 8 63 -3
51z"/>
<path d="M4528 1233 c-3 -4 -2 -19 2 -33 l6 -25 8 24 c8 22 -7 52 -16 34z"/>
<path d="M4600 1216 c0 -8 4 -17 9 -20 10 -7 23 19 14 28 -11 11 -23 6 -23 -8z"/>
<path d="M4540 1163 c0 -1 5 -14 12 -28 16 -35 38 -32 35 5 -2 24 -6 29 -24
27 -13 -1 -23 -2 -23 -4z"/>
<path d="M4600 1151 c0 -6 5 -13 10 -16 6 -3 10 1 10 9 0 9 -4 16 -10 16 -5 0
-10 -4 -10 -9z"/>
<path d="M4779 1104 c-12 -14 -11 -16 5 -13 11 2 21 10 24 17 5 17 -13 15 -29
-4z"/>
<path d="M4590 1064 c0 -9 5 -14 12 -12 18 6 21 28 4 28 -9 0 -16 -7 -16 -16z"/>
<path d="M4662 1041 c9 -15 15 -17 25 -9 10 8 13 7 13 -3 0 -10 5 -9 17 4 22
22 12 30 -21 18 -17 -7 -26 -7 -26 -1 0 6 -5 10 -10 10 -6 0 -5 -8 2 -19z"/>
<path d="M4126 1005 c-9 -26 -7 -32 5 -12 6 10 9 21 6 23 -2 3 -7 -2 -11 -11z"/>
<path d="M3550 986 c0 -9 5 -16 10 -16 6 0 10 4 10 9 0 6 -4 13 -10 16 -5 3
-10 -1 -10 -9z"/>
<path d="M4624 949 c-3 -6 -1 -16 5 -22 9 -9 14 -8 21 3 9 15 4 30 -10 30 -5
0 -12 -5 -16 -11z"/>
<path d="M4086 878 c-3 -13 -5 -32 -5 -43 1 -11 5 -2 10 19 10 42 6 62 -5 24z"/>
<path d="M5906 854 c-9 -23 -2 -28 13 -10 7 8 8 17 3 20 -6 3 -13 -1 -16 -10z"/>
<path d="M3815 840 c3 -5 8 -10 11 -10 2 0 4 5 4 10 0 6 -5 10 -11 10 -5 0 -7
-4 -4 -10z"/>
<path d="M3860 816 c0 -20 5 -26 21 -26 15 0 20 5 17 22 -5 34 -38 37 -38 4z"/>
<path d="M5855 822 c-5 -4 -10 -19 -10 -34 -1 -26 1 -27 20 -14 11 7 20 22 20
31 0 20 -15 29 -30 17z"/>
<path d="M4041 702 c-18 -83 -30 -172 -41 -302 -6 -69 -13 -144 -16 -167 -5
-34 -3 -43 9 -43 16 0 22 25 32 145 3 39 8 93 11 120 11 127 22 290 19 293 -2
2 -8 -19 -14 -46z"/>
<path d="M5833 730 c-3 -8 -10 -31 -17 -50 -14 -43 -10 -90 9 -90 8 0 17 5 20
10 9 15 35 12 35 -4 0 -8 7 -16 15 -20 9 -3 15 0 15 8 0 19 -33 54 -47 49 -13
-5 -28 51 -18 67 13 22 32 10 28 -17 -5 -27 -4 -27 9 -8 17 23 29 65 20 66
-47 6 -65 3 -69 -11z"/>
<path d="M6150 381 c0 -17 0 -33 0 -36 0 -3 3 -5 7 -5 11 0 13 59 3 65 -6 4
-10 -7 -10 -24z"/>
<path d="M5975 300 c3 -5 8 -10 11 -10 2 0 4 5 4 10 0 6 -5 10 -11 10 -5 0 -7
-4 -4 -10z"/>
<path d="M5775 259 c-4 -11 -4 -23 -2 -26 9 -8 27 7 27 22 0 23 -18 27 -25 4z"/>
<path d="M4708 233 c6 -2 18 -2 25 0 6 3 1 5 -13 5 -14 0 -19 -2 -12 -5z"/>
<path d="M5970 210 c0 -5 5 -10 11 -10 5 0 7 5 4 10 -3 6 -8 10 -11 10 -2 0
-4 -4 -4 -10z"/>
<path d="M5750 199 c0 -6 6 -9 14 -6 10 4 16 -2 19 -16 4 -18 5 -17 6 6 1 21
-4 27 -19 27 -11 0 -20 -5 -20 -11z"/>
<path d="M5653 100 c10 -27 13 -29 24 -14 9 13 9 19 -2 30 -24 24 -34 16 -22
-16z"/>
<path d="M5590 89 c0 -5 5 -7 10 -4 6 3 10 8 10 11 0 2 -4 4 -10 4 -5 0 -10
-5 -10 -11z"/>
</g>
</svg>
